<?xml version="1.0" standalone="no"?>
<!DOCTYPE svg PUBLIC "-//W3C//DTD SVG 1.1//EN" "http://www.w3.org/Graphics/SVG/1.1/DTD/svg11.dtd" >
<svg>
<metadata>
Created by FontForge 20090914 at Fri Feb 24 08:46:39 2012
 By root
4.1 Copyright 1992 Software Complement                                                                
</metadata>
<defs>
<font id="RockoFLF-Bold" horiz-adv-x="667" >
  <font-face 
    font-family="RockoFLF"
    font-weight="700"
    font-stretch="normal"
    units-per-em="1000"
    panose-1="2 0 8 3 3 0 0 2 0 4"
    ascent="800"
    descent="-200"
    x-height="579"
    cap-height="789"
    bbox="-67 -211 1228 1054"
    underline-thickness="100"
    underline-position="-150"
    unicode-range="U+0005-U+E00A"
  />
<missing-glyph horiz-adv-x="500" 
 />
    <glyph glyph-name=".notdef" horiz-adv-x="500" 
 />
    <glyph glyph-name="breve" horiz-adv-x="240" 
d="M20 771q0 -42 29 -71t71 -29t71 29t29 71q0 14 -9 23t-23 9t-23 -9t-9 -23q0 -15 -10.5 -25.5t-25.5 -10.5t-25.5 10.5t-10.5 25.5q0 14 -9 23t-23 9t-23 -9t-9 -23z" />
    <glyph glyph-name="dotaccent" horiz-adv-x="193" 
d="M20 726q0 -32 22 -54t54 -22t54.5 22t22.5 54t-22.5 54.5t-54.5 22.5t-54 -22.5t-22 -54.5z" />
    <glyph glyph-name="ring" horiz-adv-x="198" 
d="M99 789q-33 0 -56 -23t-23 -56t23 -56t56 -23t56 23t23 56t-23 56t-56 23zM99 756q19 0 32.5 -13.5t13.5 -32.5t-13.5 -32.5t-32.5 -13.5t-32.5 13.5t-13.5 32.5t13.5 32.5t32.5 13.5z" />
    <glyph glyph-name="caron" horiz-adv-x="424" 
d="M12 194h400v307l-93 93h-307v-400zM371 392q0 55 -35 99l-34 -34q8 -11 15 -26.5t7 -38.5q0 -16 -5.5 -34t-16.5 -32l34 -33q19 21 27 47.5t8 51.5zM165 495q-35 -17 -50 -46.5t-15 -56.5q0 -32 12 -53t28 -34t31.5 -18t22.5 -5q19 0 31 12t12 24q0 20 -13 33
q-10 10 -31 24.5t-32 26.5q-10 11 -14.5 24t-4.5 25q0 29 23 44zM261 382q-13 14 -33 28t-28 23q-6 8 -9.5 14t-3.5 16q0 14 10.5 25.5t30.5 11.5q8 0 19.5 -4t29.5 -14l34 34q-23 19 -48.5 27t-50.5 8q-33 0 -62 -12.5t-50.5 -34t-34 -50.5t-12.5 -62t12.5 -62t34 -50.5
t50.5 -34t62 -12.5q26 0 50.5 8t47.5 26l-35 35q-5 -3 -8.5 -5.5t-11.5 -6.5q13 6 19 19t6 25q0 11 -4 23t-15 25zM17 589h300l90 -90v-300h-390v390zM365 392q0 -57 -30 -92l-26 27q11 14 15.5 31t4.5 34q0 22 -6 36.5t-14 28.5l27 26q17 -23 23 -47t6 -44zM156 399
q2 -2 7 -6.5t22 -17.5l22 -17t13 -11q5 -7 8.5 -13.5t3.5 -15.5q0 -11 -11.5 -20.5t-26.5 -9.5q-12 0 -29.5 7.5t-30.5 21.5q-14 14 -21 32t-7 43q0 21 8.5 43t25.5 37q-2 -5 -2.5 -10.5t-0.5 -10.5q0 -13 4 -25.5t15 -26.5zM257 379q10 -14 14 -24t4 -21q0 -14 -6.5 -24
t-15 -17t-16.5 -10.5t-12 -4.5q20 3 33 9t17 8l27 -27q-23 -17 -46.5 -23t-43.5 -6q-32 0 -60 12t-49 32.5t-33 48.5t-12 60t12 60t33 49t49 33t60 12q23 0 46 -6.5t46 -23.5l-28 -28q-11 8 -25 12.5t-22 4.5q-19 0 -33.5 -11t-14.5 -31q0 -8 3 -16t12 -17q7 -7 15 -13.5
t13 -9.5q18 -13 24.5 -19.5z" />
    <glyph glyph-name="dotlessi" unicode="&#xd;" horiz-adv-x="223" 
d="M184 493q0 30 -21 51.5t-51 21.5t-51.5 -21.5t-21.5 -51.5v-421q0 -29 21.5 -50.5t50.5 -21.5q30 0 51.5 21t21.5 51v421z" />
    <glyph glyph-name="fraction" horiz-adv-x="1081" 
d="M110 720q-10 -11 -25 -18t-29.5 -14.5t-25 -18t-10.5 -26.5q0 -19 15 -36.5t37 -17.5q17 0 27.5 2.5t17.5 2.5q8 0 12 -5t4 -19v-316q0 -23 16.5 -40t40.5 -17t41 17t17 40v478q0 28 -19 42.5t-39 14.5q-14 0 -24 -6t-19 -15.5t-17.5 -22t-19.5 -25.5zM656 727q5 12 5 22
q0 17 -6.5 27.5t-15.5 16t-18 7.5t-13 2q-15 0 -28 -8t-20 -22l-327 -698q-5 -12 -5 -21q0 -22 15 -38t38 -16q15 0 28 8t20 22zM939 176q0 -25 -10.5 -43t-27.5 -29t-39 -16.5t-44 -5.5t-43.5 5.5t-38.5 16.5t-27.5 29t-10.5 43t10.5 43.5t27 30.5t38 18t44.5 6t44.5 -6
t38.5 -18t27.5 -30.5t10.5 -43.5zM917 431q0 -37 -27 -57.5t-72 -20.5q-44 0 -71 20.5t-27 57.5t27 57.5t71 20.5q45 0 72 -20.5t27 -57.5zM605 437q0 -26 6.5 -44t16 -30.5t19.5 -19.5t17 -11q4 -2 4 -8q0 -1 -4 -7q-14 -9 -28 -22.5t-26 -31.5t-19.5 -40t-7.5 -47
q0 -41 17.5 -75t48.5 -59.5t74.5 -39.5t94.5 -14q55 0 99 14t74.5 39.5t46.5 59.5t16 75q0 25 -7.5 47t-19.5 40t-26.5 32t-27.5 22q-4 4 -4 8q0 6 4 7l16 11t19.5 19.5t16.5 30.5t7 44q0 38 -17 68t-46 51t-68 32.5t-83 11.5t-82.5 -11.5t-67.5 -32.5t-46 -51t-17 -68z" />
    <glyph glyph-name="fi" horiz-adv-x="637" 
d="M461 717q0 -30 21 -51t51 -21t51 21t21 51t-21 51t-51 21t-51 -21t-21 -51zM461 474v-402q0 -29 21 -50.5t50 -21.5q30 0 51.5 21t21.5 51v421q0 30 -21 51.5t-51 21.5h-280v13q0 53 19 72.5t62 19.5q35 0 47 16.5t12 42.5q0 37 -31.5 48t-83.5 11q-51 0 -84 -15
t-52 -42.5t-26.5 -66.5t-7.5 -86v-13h-42q-19 0 -32.5 -13.5t-13.5 -32.5q0 -20 13.5 -33t32.5 -13h42v-402q0 -29 21.5 -50.5t51.5 -21.5q29 0 50.5 21.5t21.5 50.5v402h208z" />
    <glyph glyph-name="fl" horiz-adv-x="651" 
d="M605 717q0 30 -21 51t-51 21t-51 -21t-21 -51v-645q0 -29 21 -50.5t50 -21.5q30 0 51.5 21t21.5 51v645zM253 474h71q19 0 32.5 13t13.5 33q0 19 -13.5 32.5t-32.5 13.5h-71v13q0 53 19 72.5t62 19.5q35 0 47 16.5t12 42.5q0 37 -31.5 48t-83.5 11q-51 0 -84 -15
t-52 -42.5t-26.5 -66.5t-7.5 -86v-13h-42q-19 0 -32.5 -13.5t-13.5 -32.5q0 -20 13.5 -33t32.5 -13h42v-402q0 -29 21.5 -50.5t51.5 -21.5q29 0 50.5 21.5t21.5 50.5v402z" />
    <glyph glyph-name="Lslash" horiz-adv-x="703" 
d="M149 397l-113 -113q-16 -16 -16 -38q0 -27 17 -39.5t36 -12.5q20 0 37 15l39 39v-169q0 -21 7 -36t18.5 -24.5t25.5 -14t28 -4.5h397q28 0 47 19t19 47q0 27 -19 46t-47 19h-323v270l113 113q15 15 15 37q0 21 -15 37t-38 16q-21 0 -36 -15l-39 -39v163q0 32 -22.5 54
t-54.5 22t-54 -22t-22 -54v-316z" />
    <glyph glyph-name="lslash" horiz-adv-x="442" 
d="M149 248v-176q0 -29 21 -50.5t51 -21.5t51.5 21t21.5 51v321l113 113q15 15 15 37q0 21 -15 37t-38 16q-21 0 -36 -15l-39 -39v175q0 30 -21.5 51t-51.5 21q-29 0 -50.5 -21t-21.5 -51v-320l-113 -113q-16 -16 -16 -38q0 -27 17 -39.5t36 -12.5q20 0 37 15z" />
    <glyph glyph-name="Zcaron" horiz-adv-x="736" 
d="M71 724q0 -28 19.5 -47t46.5 -19h359l-434 -527q-16 -19 -16 -43q0 -15 6 -30.5t17.5 -28.5t27.5 -21t37 -8h509q27 0 46.5 19t19.5 47q0 27 -19.5 46t-46.5 19h-386l431 527q16 19 16 43q0 15 -6 31t-17.5 28.5t-28 20.5t-36.5 8h-479q-27 0 -46.5 -19t-19.5 -46z
M257 969q0 -42 29 -71t71 -29t71 29t29 71q0 14 -9 23t-23 9t-23 -9t-9 -23q0 -15 -10.5 -25.5t-25.5 -10.5t-25.5 10.5t-10.5 25.5q0 14 -9 23t-23 9t-23 -9t-9 -23z" />
    <glyph glyph-name="zcaron" horiz-adv-x="558" 
d="M55 520q0 -25 17 -42t42 -17h224l-296 -334q-22 -25 -22 -53q0 -15 6 -28t16 -23.5t23.5 -16.5t28.5 -6h385q25 0 42 16t17 43q0 25 -17 42t-42 17h-262l297 326q24 27 24 58t-22 54t-64 23h-338q-25 0 -42 -17.5t-17 -41.5zM183 757q0 -42 29 -71t71 -29t71 29t29 71
q0 14 -9 23t-23 9t-23 -9t-9 -23q0 -15 -10.5 -25.5t-25.5 -10.5t-25.5 10.5t-10.5 25.5q0 14 -9 23t-23 9t-23 -9t-9 -23z" />
    <glyph glyph-name="space" unicode=" " horiz-adv-x="263" 
 />
    <glyph glyph-name="exclam" unicode="!" horiz-adv-x="245" 
d="M46 76q0 -32 22 -54t54 -22t54.5 22t22.5 54t-22.5 54.5t-54.5 22.5t-54 -22.5t-22 -54.5zM185 726q0 26 -18.5 44.5t-44.5 18.5t-44.5 -18.5t-18.5 -44.5v-444q0 -26 18.5 -45t44.5 -19t44.5 19t18.5 45v444z" />
    <glyph glyph-name="quotedbl" unicode="&#x22;" horiz-adv-x="336" 
d="M46 625q4 -16 13 -27t25 -11t25 11t13 27l25 114q1 3 1 10q0 24 -21 39t-43 15t-43 -15t-21 -39q0 -7 1 -10zM214 625q4 -16 13 -27t25 -11t25 11t13 27l25 114q1 3 1 10q0 24 -21 39t-43 15t-43 -15t-21 -39q0 -7 1 -10z" />
    <glyph glyph-name="numbersign" unicode="#" horiz-adv-x="552" 
d="M230 586h92v-93h-92v93zM230 401h92v-65q0 -20 13.5 -33.5t32.5 -13.5q20 0 33 13.5t13 33.5v65h66q20 0 33 13.5t13 32.5q0 20 -13 33t-33 13h-66v93h66q20 0 33 13t13 33q0 19 -13 32.5t-33 13.5h-66v65q0 20 -13 33t-33 13q-19 0 -32.5 -13t-13.5 -33v-65h-92v65
q0 20 -13.5 33t-32.5 13t-32.5 -13t-13.5 -33v-65h-66q-19 0 -32.5 -13.5t-13.5 -32.5q0 -20 13.5 -33t32.5 -13h66v-93h-66q-19 0 -32.5 -13t-13.5 -33q0 -19 13.5 -32.5t32.5 -13.5h66v-65q0 -20 13.5 -33.5t32.5 -13.5t32.5 13.5t13.5 33.5v65z" />
    <glyph glyph-name="dollar" unicode="$" horiz-adv-x="541" 
d="M236 511q-25 8 -44.5 18.5t-19.5 33.5q0 14 6 23.5t15.5 15.5t20.5 9.5t22 5.5v-106zM289 132q45 0 86 13t72 38.5t49 63t18 87.5q0 41 -19.5 68t-51 44.5t-72 29t-82.5 21.5v120q10 -2 23.5 -6t27 -11.5t26 -19.5t20.5 -31q5 -14 16 -19.5t23 -5.5q11 0 22.5 4.5t21 12
t15.5 18.5t6 24q0 15 -11 36.5t-35.5 42.5t-62.5 38t-92 23v53q0 11 -7.5 19t-18.5 8t-19 -8t-8 -19v-53q-41 -3 -77 -16.5t-62.5 -36.5t-41.5 -54t-15 -70t17.5 -65.5t45.5 -45t63 -30t70 -19.5v-143q-26 9 -48.5 27t-39.5 61q-6 15 -20 22t-31 7q-25 0 -46.5 -12
t-21.5 -43q0 -19 11.5 -45.5t36.5 -52t64.5 -46t94.5 -26.5v-69q0 -11 8 -18.5t19 -7.5t18.5 7.5t7.5 18.5v66zM289 372q34 -9 60.5 -24t26.5 -43q0 -17 -8.5 -29t-21.5 -20.5t-28.5 -13t-28.5 -5.5v135z" />
    <glyph glyph-name="percent" unicode="%" horiz-adv-x="852" 
d="M184 395q77 0 121 55t44 149q0 46 -11.5 84t-33 64.5t-52 41t-68.5 14.5q-77 0 -120.5 -55t-43.5 -149t43.5 -149t120.5 -55zM263 599q0 -63 -20.5 -91t-58.5 -28t-58.5 28t-20.5 91q0 62 20.5 90t58.5 28t58.5 -28t20.5 -90zM667 0q77 0 121 55t44 149q0 46 -11.5 84
t-33 64.5t-52 41t-68.5 14.5q-77 0 -120.5 -55t-43.5 -149t43.5 -149t120.5 -55zM746 204q0 -63 -20.5 -90.5t-58.5 -27.5t-58.5 27.5t-20.5 90.5t20.5 90.5t58.5 27.5t58.5 -27.5t20.5 -90.5zM645 727q5 12 5 22q0 17 -6.5 27.5t-15.5 16t-18 7.5t-13 2q-15 0 -28 -8
t-20 -22l-327 -698q-5 -12 -5 -21q0 -22 15 -38t38 -16q15 0 28 8t20 22z" />
    <glyph glyph-name="ampersand" unicode="&#x26;" horiz-adv-x="676" 
d="M309 516q-20 25 -37.5 50.5t-17.5 49.5q0 25 20.5 40t45.5 15q26 0 46 -14t20 -41q0 -33 -18 -54t-59 -46zM194 445q-33 -20 -64.5 -43t-56 -51t-39 -63t-14.5 -80q0 -51 17.5 -92t48 -69.5t73.5 -44t94 -15.5q43 0 77 8.5t62 22t50.5 31l42.5 34.5l50 -61q18 -23 49 -23
q29 0 50.5 21.5t21.5 50.5q0 26 -17 46l-60 71q40 59 53 96.5t13 48.5q0 16 -7 29t-17.5 22.5t-24 15t-25.5 5.5q-14 0 -25 -7.5t-16 -23.5t-13.5 -35.5t-23.5 -45.5l-104 126q31 21 56.5 42.5t43 44.5t27 50.5t9.5 60.5q0 42 -15.5 76t-43.5 58.5t-67.5 38t-86.5 13.5
q-39 0 -76 -12.5t-65 -36t-45 -55.5t-17 -71q0 -30 8.5 -56.5t21.5 -49t28 -42zM405 184q-33 -33 -72.5 -49.5t-74.5 -16.5q-30 0 -48.5 11t-28.5 26t-13.5 30t-3.5 23q0 22 10 40.5t26.5 35t36 31l39.5 28.5z" />
    <glyph glyph-name="quotesingle" unicode="'" horiz-adv-x="168" 
d="M46 625q4 -16 13 -27t25 -11t25 11t13 27l25 114q1 3 1 10q0 24 -21 39t-43 15t-43 -15t-21 -39q0 -7 1 -10z" />
    <glyph glyph-name="parenleft" unicode="(" horiz-adv-x="262" 
d="M132 15q13 -19 28 -27t30 -8q24 0 42 17t18 42q0 15 -9 32q-48 87 -71 166t-23 158t23 158t71 166q4 7 4 16q0 11 -5.5 23t-14.5 22t-21 16.5t-25 6.5q-12 0 -24 -6.5t-23 -22.5q-57 -81 -84.5 -178.5t-27.5 -200.5t28 -201t84 -179z" />
    <glyph glyph-name="parenright" unicode=")" horiz-adv-x="261" 
d="M129 774q-11 16 -23 22.5t-24 6.5q-13 0 -25 -6.5t-21 -16.5t-14.5 -22t-5.5 -23q0 -9 4 -16q47 -87 70.5 -166t23.5 -158t-23.5 -158t-70.5 -166q-8 -15 -8 -32q0 -25 17.5 -42t41.5 -17q14 0 29.5 8t28.5 27q57 81 84.5 179t27.5 201t-27.5 200.5t-84.5 178.5z" />
    <glyph glyph-name="asterisk" unicode="*" horiz-adv-x="402" 
d="M250 754q0 20 -14.5 34.5t-34.5 14.5t-34.5 -14.5t-14.5 -34.5v-66l-59 34q-11 6 -24 6q-14 0 -23.5 -5.5t-15 -13t-8 -16t-2.5 -14.5q0 -13 6 -24.5t18 -18.5l58 -33l-58 -34q-12 -7 -18 -18.5t-6 -24.5q0 -25 17 -36.5t32 -11.5q12 0 24 6l59 34v-66q0 -20 14.5 -35
t34.5 -15t34.5 15t14.5 35v66l58 -34q10 -6 25 -6q27 0 38 16.5t11 31.5q0 29 -24 43l-58 34l58 33q12 7 18 18.5t6 24.5q0 15 -5.5 24.5t-13.5 15t-16 7.5t-14 2q-15 0 -25 -6l-58 -34v66z" />
    <glyph glyph-name="plus" unicode="+" horiz-adv-x="445" 
d="M275 342h106q22 0 37 15.5t15 37.5t-15 37t-37 15h-106v106q0 22 -15 37t-37 15t-37.5 -15t-15.5 -37v-106h-105q-22 0 -37.5 -15t-15.5 -37t15.5 -37.5t37.5 -15.5h105v-105q0 -22 15.5 -37.5t37.5 -15.5t37 15.5t15 37.5v105z" />
    <glyph glyph-name="comma" unicode="," horiz-adv-x="194" 
d="M20 76q0 -32 22 -54t54 -22l-30 -31q-8 -8 -8 -19q0 -14 12.5 -26t28.5 -12q14 0 23 9q12 12 21.5 28t16.5 34.5t10.5 37.5t3.5 36q0 39 -21 67.5t-57 28.5q-32 0 -54 -22.5t-22 -54.5z" />
    <glyph glyph-name="hyphen" unicode="-" horiz-adv-x="461" 
d="M389 342q22 0 37 15.5t15 37.5t-15 37t-37 15h-316q-22 0 -37.5 -15t-15.5 -37t15.5 -37.5t37.5 -15.5h316z" />
    <glyph glyph-name="period" unicode="." horiz-adv-x="193" 
d="M20 76q0 -32 22 -54t54 -22t54.5 22t22.5 54t-22.5 54.5t-54.5 22.5t-54 -22.5t-22 -54.5z" />
    <glyph glyph-name="slash" unicode="/" horiz-adv-x="457" 
d="M440 727q5 12 5 22q0 17 -6.5 27.5t-15.5 16t-18 7.5t-13 2q-15 0 -28 -8t-20 -22l-327 -698q-5 -12 -5 -21q0 -22 15 -38t38 -16q15 0 28 8t20 22z" />
    <glyph glyph-name="zero" unicode="0" horiz-adv-x="698" 
d="M349 -13q76 0 137 28.5t104 82t65.5 129t22.5 168.5t-22.5 168.5t-65.5 129t-104 82t-137 28.5q-77 0 -138 -28.5t-103.5 -82t-65 -129t-22.5 -168.5t22.5 -168.5t65 -129t103.5 -82t138 -28.5zM525 395q0 -139 -45.5 -201t-130.5 -62q-86 0 -131.5 62t-45.5 201
q0 138 45.5 200.5t131.5 62.5q85 0 130.5 -62.5t45.5 -200.5z" />
    <glyph glyph-name="one" unicode="1" horiz-adv-x="363" 
d="M133 697q-13 -15 -33 -24.5l-39.5 -19.5t-33.5 -23t-14 -35q0 -13 5.5 -25.5t15 -23t22 -17t27.5 -6.5q22 0 36 3t24 3t15.5 -6.5t5.5 -25.5v-421q0 -32 22 -54t54 -22t54.5 22t22.5 54v637q0 18 -7.5 32.5t-18.5 24t-24.5 14.5t-26.5 5q-19 0 -32.5 -8t-25 -21
t-23 -29.5t-26.5 -33.5z" />
    <glyph glyph-name="two" unicode="2" horiz-adv-x="613" 
d="M34 599q0 -24 7 -40.5t18 -27.5t25 -16t29 -5q26 0 47 15.5t21 41.5q0 30 8.5 50t23.5 32t35 17t42 5q55 0 92.5 -30.5t37.5 -97.5q0 -44 -29.5 -83t-74 -76t-96.5 -73.5t-96.5 -75t-74 -80.5t-29.5 -89q0 -24 19 -45t47 -21h442q27 0 46 19t19 47q0 27 -19 46t-46 19
h-271q-18 0 -25 3.5t-7 9.5q0 7 8 16t19 18l23 18l20 15q17 13 45 30.5t59.5 39.5t63.5 48.5t57.5 58.5t41.5 70t16 81q0 76 -24 127t-64 81.5t-92 43t-108 12.5q-47 0 -93 -12.5t-82 -38t-58.5 -63.5t-22.5 -90z" />
    <glyph glyph-name="three" unicode="3" horiz-adv-x="637" 
d="M313 671q60 0 94 -26t35 -74q0 -32 -16.5 -52.5t-39.5 -32.5t-48.5 -17t-44.5 -5q-20 0 -29.5 -14.5t-9.5 -33.5t10 -36t29 -17q26 0 55 -5t53 -19t40 -39.5t16 -66.5q0 -28 -13 -49.5t-34 -36t-48 -22t-54 -7.5q-38 0 -65.5 12.5t-46.5 30.5t-30.5 37.5t-16.5 34.5
q-7 20 -22 28.5t-33 8.5q-13 0 -26.5 -5t-24 -14t-17 -22.5t-6.5 -30.5q0 -21 14.5 -56.5t48 -70t88.5 -59.5t137 -25q57 0 112 15t99 45t71 73.5t27 100.5q0 50 -14.5 83t-35.5 55t-45 34t-43 20q-5 2 -5 7q0 4 7 7q6 2 24.5 12t38 28.5t34.5 46.5t15 66q0 45 -20 85
t-56.5 71t-88 49t-115.5 18q-74 0 -123.5 -25.5t-80 -59t-43.5 -68t-13 -52.5q0 -39 23 -58.5t49 -19.5q20 0 36 11t21 37q4 18 13.5 36.5t25.5 33t39 24t53 9.5z" />
    <glyph glyph-name="four" unicode="4" horiz-adv-x="673" 
d="M13 300q0 -24 9 -45.5t25.5 -37.5t39.5 -25.5t52 -9.5h248v-106q0 -32 22 -54t54 -22t54.5 22t22.5 54v106h54q27 0 46.5 19t19.5 46q0 28 -19.5 47t-46.5 19h-54v362q0 24 -8.5 45t-23 36.5t-34.5 24t-42 8.5q-31 0 -54.5 -18.5t-45.5 -44.5l-280 -330q-39 -45 -39 -96z
M387 601v-288h-241z" />
    <glyph glyph-name="five" unicode="5" horiz-adv-x="639" 
d="M173 789q-24 0 -39 -5.5t-23.5 -15t-12.5 -22.5t-7 -28l-48 -288q-3 -20 2 -35.5t16 -26.5t25.5 -17t29.5 -6q24 0 43.5 9.5l40.5 20.5t48 20.5t68 9.5q30 0 57 -11t47 -30t32 -45t12 -56q0 -36 -13.5 -63.5t-35.5 -45.5t-50.5 -27t-59.5 -9q-36 0 -61 8.5t-43 24
t-29.5 38t-20.5 50.5q-8 24 -22.5 34.5t-31.5 10.5q-14 0 -27.5 -6t-24.5 -16.5t-18 -25t-7 -30.5q0 -10 3 -20q8 -27 23 -61.5t46 -65t82 -51.5t131 -21q63 0 120 16.5t100 51t68.5 87.5t25.5 126q0 53 -18.5 101t-53.5 84t-84.5 57.5t-111.5 21.5q-26 0 -50 -5.5
t-45.5 -13t-39.5 -17l-31 -16.5l29 178h247q27 0 46.5 19t19.5 47q0 27 -19.5 46t-46.5 19h-288z" />
    <glyph glyph-name="six" unicode="6" horiz-adv-x="648" 
d="M334 113q-32 0 -59.5 12t-47.5 33t-32 49t-12 60q0 30 11.5 55.5t31.5 44t46 29.5t56 11q31 0 57.5 -11.5t46.5 -31.5t31.5 -46.5t11.5 -56.5t-11 -56.5t-30.5 -47t-45 -32.5t-54.5 -12zM20 382q0 -92 22 -165t63.5 -124t100 -78.5t132.5 -27.5q58 0 110.5 19t92.5 54.5
t63.5 85.5t23.5 113q0 59 -21 109t-59 87t-91 57.5t-116 20.5q-26 0 -49 -4.5t-42 -10.5l-32.5 -10.5t-20.5 -4.5q-8 0 -8 5q0 32 11 61.5t31 52t46.5 36t58.5 13.5q26 0 45.5 -5t35.5 -14.5t28.5 -24.5t25.5 -35q7 -11 19 -16t26 -5q24 0 45.5 15t21.5 44q0 17 -14 46
t-44.5 57.5t-80 49t-120.5 20.5q-77 0 -134.5 -33t-95 -90t-56 -134t-18.5 -164z" />
    <glyph glyph-name="seven" unicode="7" horiz-adv-x="629" 
d="M440 658q-71 -71 -128 -153t-97 -160t-61.5 -144.5t-21.5 -108.5q0 -18 7 -34.5t19.5 -29.5t29.5 -20.5t36 -7.5t36 7t29.5 19.5t19.5 29t7 36.5q0 53 13.5 106.5t35 105.5t50 100.5t58.5 92t59.5 79.5t54.5 63q30 32 30 68q0 35 -27 58.5t-67 23.5h-444q-27 0 -46.5 -19
t-19.5 -46q0 -28 19.5 -47t46.5 -19h361z" />
    <glyph glyph-name="eight" unicode="8" 
d="M494 238q0 -34 -14 -57.5t-36.5 -38.5t-51.5 -22t-59 -7t-58.5 7t-51 22t-36.5 38.5t-14 57.5t13.5 58.5t36 40.5t51.5 23.5t59 7.5t59 -7.5t51.5 -23.5t36.5 -40.5t14 -58.5zM465 578q0 -50 -36 -77t-96 -27q-59 0 -95 27t-36 77q0 49 36 76.5t95 27.5q60 0 96 -27.5
t36 -76.5zM49 586q0 -35 9 -59.5t21.5 -40.5t25.5 -25.5t22 -14.5q6 -4 6 -11q0 -5 -6 -9q-18 -12 -37 -30t-34.5 -42t-25.5 -53t-10 -63q0 -54 23 -100t64.5 -79.5t99 -52.5t126.5 -19q74 0 132 19t98.5 52.5t62 79.5t21.5 100q0 33 -10 62t-26 53.5t-34.5 43t-36.5 29.5
q-6 4 -6 10q0 7 6 10q9 5 22 14.5t25.5 25.5t21.5 40.5t9 59.5q0 50 -22.5 90.5t-61.5 68.5t-91 43t-110 15t-109.5 -15t-90.5 -43t-61.5 -68.5t-22.5 -90.5z" />
    <glyph glyph-name="nine" unicode="9" horiz-adv-x="648" 
d="M173 529q0 30 11 56.5t30 46.5t44.5 32t54.5 12q33 0 61.5 -12t49 -32.5t31.5 -48.5t10 -61q-1 -29 -13 -54.5t-31.5 -44.5t-45.5 -30t-55 -11q-30 0 -57 11.5t-47 31.5t-31.5 47t-11.5 57zM324 -13q77 0 134.5 34.5t95 92.5t56 134t18.5 160q0 92 -22.5 165.5
t-63.5 124.5t-100.5 78t-132.5 27q-58 0 -110.5 -19t-92 -54.5t-63 -86t-23.5 -113.5q0 -59 21 -108.5t59 -86.5t90.5 -57.5t116.5 -20.5q26 0 49 4.5t41.5 10.5l32 10.5t21.5 4.5t8 -5q0 -33 -11.5 -62.5t-31 -52t-47 -36t-58.5 -13.5q-52 0 -81 20.5t-53 58.5
q-7 11 -19 16t-26 5q-24 0 -46 -15t-22 -44q0 -18 15 -47t47 -56.5t81 -48t117 -20.5z" />
    <glyph glyph-name="colon" unicode=":" horiz-adv-x="233" 
d="M40 365q0 -32 22 -54t54 -22t54.5 22t22.5 54t-22.5 54.5t-54.5 22.5t-54 -22.5t-22 -54.5zM40 76q0 -32 22 -54t54 -22t54.5 22t22.5 54t-22.5 54.5t-54.5 22.5t-54 -22.5t-22 -54.5z" />
    <glyph glyph-name="semicolon" unicode=";" horiz-adv-x="234" 
d="M40 365q0 -32 22 -54t54 -22t54.5 22t22.5 54t-22.5 54.5t-54.5 22.5t-54 -22.5t-22 -54.5zM40 76q0 -32 22 -54t54 -22l-30 -31q-8 -8 -8 -19q0 -14 12.5 -26t28.5 -12q14 0 23 9q12 12 21.5 28t16.5 34.5t10.5 37.5t3.5 36q0 39 -21 67.5t-57 28.5q-32 0 -54 -22.5
t-22 -54.5z" />
    <glyph glyph-name="less" unicode="&#x3c;" horiz-adv-x="286" 
d="M30 434q-18 -18 -18 -39q0 -22 18 -40l145 -144q16 -16 38 -16q13 0 23 5.5t16.5 13.5t10 17t3.5 17q0 22 -16 38l-109 109l109 109q16 16 16 37q0 23 -16 38t-38 15t-37 -15z" />
    <glyph glyph-name="equal" unicode="=" horiz-adv-x="445" 
d="M394 276q17 0 28 11.5t11 28.5t-11 28t-28 11h-342q-17 0 -28.5 -11t-11.5 -28t11.5 -28.5t28.5 -11.5h342zM394 434q17 0 28 11.5t11 28.5t-11 28t-28 11h-342q-17 0 -28.5 -11t-11.5 -28t11.5 -28.5t28.5 -11.5h342z" />
    <glyph glyph-name="greater" unicode="&#x3e;" horiz-adv-x="286" 
d="M111 579q-15 15 -37 15q-28 0 -41 -18t-13 -34q0 -22 16 -38l109 -109l-109 -109q-16 -16 -16 -38q0 -13 5.5 -23t13.5 -16.5t17 -10t17 -3.5q22 0 38 16l145 144q18 18 18 40q0 21 -18 39z" />
    <glyph glyph-name="question" unicode="?" horiz-adv-x="592" 
d="M198 76q0 -32 22.5 -54t54.5 -22t54 22t22 54t-22 54.5t-54 22.5t-54.5 -22.5t-22.5 -54.5zM290 671q28 0 51.5 -9t41 -24.5t27.5 -36t10 -43.5q0 -28 -15.5 -50.5t-38.5 -42t-50 -38t-50 -39t-38.5 -44.5t-15.5 -54q0 -21 7.5 -35t19 -22t23.5 -11.5t21 -3.5
q23 0 40.5 13.5t27.5 36.5q9 21 29 40.5t44.5 38.5l50.5 40t47.5 46t35.5 55.5t14 69.5q0 61 -24.5 106.5t-65 76.5t-92.5 46.5t-107 15.5q-61 0 -110 -20.5t-83 -50.5t-52 -65t-18 -64q0 -16 7 -29.5t18.5 -23t26 -15t28.5 -5.5q16 0 29.5 8t21.5 26q8 19 18 38t25.5 34.5
t38.5 25t57 9.5z" />
    <glyph glyph-name="at" unicode="@" horiz-adv-x="698" 
d="M407 389v-58q0 -12 -7 -21.5t-18 -15.5t-25 -9.5t-27 -3.5q-20 0 -38.5 8.5t-18.5 32.5q0 39 44 45q36 5 62 13.5t28 8.5zM678 395q0 68 -26 128t-70.5 104.5t-104.5 70.5t-128 26t-128 -26t-104.5 -70.5t-70.5 -104.5t-26 -128t26 -128t70.5 -104.5t104.5 -70.5t128 -26
q14 0 23.5 9.5t9.5 23.5t-9.5 23.5t-23.5 9.5q-54 0 -102 20.5t-84 56.5t-56.5 84t-20.5 102t20.5 102t56.5 84t84 56.5t102 20.5t102 -20.5t84 -56.5t56.5 -84t20.5 -102q0 -33 -9 -66.5t-23 -60.5t-30.5 -44t-30.5 -17q-13 0 -21 10.5t-8 23.5v236q0 24 -10.5 41
t-29.5 28.5t-44.5 17t-56.5 5.5q-65 0 -102 -25t-37 -59q0 -26 10.5 -32.5t25.5 -6.5q22 0 30.5 10t15 22.5t16 22.5t35.5 10t45 -8.5t19 -27.5q0 -16 -7 -23t-34 -15q-24 -7 -54.5 -11.5t-58.5 -15t-47 -31.5t-19 -61q0 -25 10.5 -43.5t27 -30.5t37 -17.5t41.5 -5.5
q29 0 55 7t49 30v-17q0 -23 9 -42t24 -32.5t34 -21t39 -7.5q35 0 65.5 24t52.5 61.5t34.5 83t12.5 88.5z" />
    <glyph glyph-name="A" unicode="A" 
d="M334 636l81 -276h-163zM507 52q8 -24 28.5 -38t44.5 -14q20 0 34 7.5t23 18.5t13.5 25t4.5 26q0 13 -5 28l-207 598q-7 20 -17 38.5t-23.5 32t-30.5 21.5t-38 8q-22 0 -39 -8t-30 -21.5t-23 -32t-17 -38.5l-208 -598q-5 -15 -5 -28q0 -30 20.5 -53.5t55.5 -23.5
q24 0 44.5 14t28.5 38l57 191h232z" />
    <glyph glyph-name="B" unicode="B" horiz-adv-x="699" 
d="M404 658q19 0 36 -7t29.5 -19.5t19.5 -29.5t7 -36t-7 -36t-19.5 -29.5t-29.5 -19.5t-36 -7h-205v184h205zM408 355q23 0 43.5 -9t35.5 -24t24 -35.5t9 -43.5t-9 -43t-24 -35t-35.5 -24t-43.5 -9h-209v223h209zM431 0q48 0 91.5 16t76.5 45t53 69t20 89q0 54 -17 91.5
t-41 61.5t-49.5 37.5t-43.5 19.5q23 9 46 20.5t41 30.5t29.5 48t11.5 71q0 40 -18 75t-48 60.5t-69.5 40t-82.5 14.5h-307q-24 0 -39.5 -8.5t-24 -21t-11.5 -26t-3 -22.5v-632q0 -21 7 -36t18.5 -24.5t25.5 -14t28 -4.5h306z" />
    <glyph glyph-name="C" unicode="C" horiz-adv-x="707" 
d="M379 803q-90 0 -157.5 -34t-112 -90.5t-67 -130.5t-22.5 -153q0 -80 22.5 -153.5t67 -130t112 -90.5t157.5 -34q75 0 131 24t93.5 57t56.5 68t19 57q0 16 -7.5 30t-19.5 24t-26.5 16t-28.5 6t-26 -7t-19 -21q-8 -17 -19.5 -38t-31 -40t-49 -32t-73.5 -13
q-50 0 -88.5 24.5t-65 63.5t-40 88.5t-13.5 100.5q0 50 13.5 99.5t40 88.5t65 63.5t88.5 24.5q44 0 73.5 -13t49 -31.5t31 -40l19.5 -37.5q7 -14 19 -21t27 -7q14 0 28.5 6t26.5 16t19.5 24t7.5 30q0 21 -19 56t-57 68t-94 57.5t-131 24.5z" />
    <glyph glyph-name="D" unicode="D" horiz-adv-x="719" 
d="M340 658q59 0 98.5 -23t63.5 -60t34 -84t10 -96t-10 -96.5t-34 -84.5t-63.5 -59.5t-98.5 -22.5h-141v526h141zM397 0q73 0 129 34.5t94.5 90.5t58.5 126.5t20 143.5q0 72 -20 143t-58.5 126.5t-95 90t-128.5 34.5h-272q-24 0 -39.5 -8.5t-24.5 -21t-12 -26t-3 -22.5v-632
q0 -21 7 -36t18.5 -24.5t25.5 -14t28 -4.5h272z" />
    <glyph glyph-name="E" unicode="E" horiz-adv-x="634" 
d="M493 355q28 0 47 19.5t19 46.5t-19 46.5t-47 19.5h-294v171h350q27 0 46 19t19 47q0 27 -19 46t-46 19h-424q-24 0 -39.5 -8.5t-24.5 -21t-12 -26t-3 -22.5v-632q0 -21 7 -36t18.5 -24.5t25.5 -14t28 -4.5h424q27 0 46 19t19 47q0 27 -19 46t-46 19h-350v224h294z" />
    <glyph glyph-name="F" unicode="F" horiz-adv-x="621" 
d="M199 342h281q28 0 47 19.5t19 46.5t-19 46.5t-47 19.5h-281v184h337q27 0 46 19t19 47q0 27 -19 46t-46 19h-411q-24 0 -39.5 -8.5t-24.5 -21t-12 -26t-3 -22.5v-635q0 -32 22 -54t54 -22t54.5 22t22.5 54v266z" />
    <glyph glyph-name="G" unicode="G" horiz-adv-x="741" 
d="M538 296q16 0 29 -3t13 -21q0 -12 -9 -37.5t-32 -51.5t-62 -45.5t-98 -19.5q-50 0 -88.5 24.5t-65 63.5t-40 88.5t-13.5 100.5q0 50 13.5 99.5t40 88.5t65 63.5t88.5 24.5q44 0 73.5 -13t49 -31.5t31 -40l19.5 -37.5q7 -14 19 -21t27 -7q14 0 28.5 6t26.5 16t19.5 24
t7.5 30q0 21 -19 56t-57 68.5t-94 57.5t-131 24q-90 0 -157.5 -34t-112 -90.5t-67 -130.5t-22.5 -153q0 -80 22.5 -153.5t67 -130t112 -90.5t157.5 -34q60 0 109 17.5t87 46.5t65.5 65.5t45.5 74.5t26.5 74.5t8.5 64.5q0 41 -16 66.5t-51 25.5h-208q-26 0 -44.5 -18.5
t-18.5 -44.5t18.5 -44.5t44.5 -18.5h92z" />
    <glyph glyph-name="H" unicode="H" horiz-adv-x="724" 
d="M199 479v234q0 32 -22.5 54t-54.5 22t-54 -22t-22 -54v-637q0 -32 22 -54t54 -22t54.5 22t22.5 54v271h326v-271q0 -32 22 -54t54 -22t54.5 22t22.5 54v637q0 32 -22.5 54t-54.5 22t-54 -22t-22 -54v-234h-326z" />
    <glyph glyph-name="I" unicode="I" horiz-adv-x="245" 
d="M199 713q0 32 -22.5 54t-54.5 22t-54 -22t-22 -54v-637q0 -32 22 -54t54 -22t54.5 22t22.5 54v637z" />
    <glyph glyph-name="J" unicode="J" horiz-adv-x="540" 
d="M242 118q-45 0 -71.5 25t-26.5 70q0 37 -20.5 55.5t-45.5 18.5t-45.5 -18.5t-20.5 -55.5q0 -52 16.5 -93.5t46.5 -71t72.5 -45.5t94.5 -16q59 0 106 18t79.5 48.5t49.5 70t17 83.5v506q0 32 -22.5 54t-54.5 22t-54 -22t-22 -54v-506q0 -20 -8 -36t-22 -28t-32 -18.5
t-37 -6.5z" />
    <glyph glyph-name="K" unicode="K" horiz-adv-x="657" 
d="M199 290l83 84l232 -346q10 -14 25 -21t32 -7q19 0 33 7t23 17.5t13.5 23.5t4.5 24q0 25 -15 46l-252 353l193 197q16 16 16 41q0 32 -22 52t-50 20t-47 -20l-269 -290v242q0 32 -22.5 54t-54.5 22t-54 -22t-22 -54v-637q0 -32 22 -54t54 -22t54.5 22t22.5 54v214z" />
    <glyph glyph-name="L" unicode="L" horiz-adv-x="600" 
d="M199 713q0 32 -22.5 54t-54.5 22t-54 -22t-22 -54v-634q0 -21 7 -36t18.5 -24.5t25.5 -14t28 -4.5h397q28 0 47 19t19 47q0 27 -19 46t-47 19h-323v582z" />
    <glyph glyph-name="M" unicode="M" horiz-adv-x="860" 
d="M336 72q9 -33 34 -52.5t60 -19.5t60.5 19.5t34.5 52.5l145 520v-520q0 -29 21 -50.5t51 -21.5t51 21.5t21 50.5v612q0 24 -10 43t-27 33t-39 21.5t-46 7.5q-45 0 -76.5 -24t-43.5 -66l-142 -504l-142 504q-12 42 -43.5 66t-76.5 24q-23 0 -45 -7.5t-39 -21.5t-27.5 -33
t-10.5 -43v-612q0 -29 21.5 -50.5t50.5 -21.5q30 0 51.5 21.5t21.5 50.5v520z" />
    <glyph glyph-name="N" unicode="N" horiz-adv-x="724" 
d="M487 67q19 -31 44.5 -49t60.5 -18q18 0 33.5 6.5t27 18.5t18.5 27.5t7 33.5v631q0 30 -21.5 51t-51.5 21q-29 0 -50.5 -21t-21.5 -51v-491l-296 496q-19 32 -44.5 49.5t-60.5 17.5q-36 0 -61 -25t-25 -60v-632q0 -29 21.5 -50.5t50.5 -21.5q30 0 51.5 21.5t21.5 50.5v491
z" />
    <glyph glyph-name="O" unicode="O" horiz-adv-x="756" 
d="M378 -14q88 0 155 34t112 91t68 130.5t23 153.5q0 79 -23 152.5t-68 130.5t-112 91t-155 34q-89 0 -156 -34t-112 -91t-67.5 -130.5t-22.5 -152.5q0 -80 22.5 -153.5t67.5 -130.5t112 -91t156 -34zM591 395q0 -51 -12 -100.5t-38 -89t-66 -63.5t-97 -24t-97.5 24
t-66.5 63.5t-38 89t-12 100.5t12 100.5t38 88.5t66.5 63t97.5 24t97 -24t66 -63t38 -88.5t12 -100.5z" />
    <glyph glyph-name="P" unicode="P" horiz-adv-x="650" 
d="M376 282q52 0 98.5 20t81 54.5t54.5 80.5t20 99q0 52 -20 98.5t-54.5 80.5t-81 54t-98.5 20h-251q-24 0 -39.5 -8.5t-24.5 -21t-12 -26t-3 -22.5v-635q0 -32 22 -54t54 -22t54.5 22t22.5 54v206h177zM363 658q25 0 47.5 -9.5t39.5 -26t26.5 -39t9.5 -47.5q0 -26 -9.5 -48
t-26.5 -39t-39.5 -26.5t-47.5 -9.5h-164v245h164z" />
    <glyph glyph-name="Q" unicode="Q" horiz-adv-x="756" 
d="M467 139q-24 -11 -41.5 -16t-47.5 -5q-57 0 -97.5 24t-66.5 63.5t-38 89t-12 100.5t12 100.5t38 88.5t66.5 63t97.5 24t97 -24t66 -63t38 -88.5t12 -100.5q0 -54 -13.5 -101.5t-30.5 -76.5l-33 30q-14 13 -34 13q-16 0 -27 -6t-17.5 -14t-9 -18t-2.5 -17q0 -11 4.5 -22.5
t13.5 -19.5zM621 -6q16 -16 41 -16q19 0 37 14t18 41q0 29 -22 49l-43 39q35 48 59.5 118.5t24.5 155.5q0 79 -23 152.5t-68 130.5t-112 91t-155 34q-89 0 -156 -34t-112 -91t-67.5 -130.5t-22.5 -152.5q0 -80 22.5 -153.5t67.5 -130t112 -90.5t156 -34q54 0 98 12t93 43z
" />
    <glyph glyph-name="R" unicode="R" horiz-adv-x="684" 
d="M395 658q22 0 42 -8.5t35 -23.5t23.5 -35t8.5 -42q0 -23 -8.5 -43t-23.5 -35t-35 -23.5t-42 -8.5h-196v219h196zM657 583q0 43 -16.5 80.5t-44.5 65.5t-66 44t-80 16h-325q-24 0 -39.5 -8.5t-24.5 -21t-12 -26t-3 -22.5v-635q0 -32 22 -54t54 -22t54.5 22t22.5 54v245
h144q36 0 61 -7t41 -18.5t23.5 -24.5t9.5 -25l22 -184q3 -28 24 -45t50 -17q14 0 28.5 4.5t26 13.5t18 22t4.5 30l-23 209q-2 20 -12 36.5t-24 29t-31.5 20.5t-35.5 11q-12 3 -12 9q0 4 11 8q66 22 99.5 72t33.5 118z" />
    <glyph glyph-name="S" unicode="S" horiz-adv-x="659" 
d="M632 238q0 57 -19.5 95.5t-51.5 64t-72.5 40.5t-83 25.5t-83 19t-72.5 21t-51.5 31t-19.5 49.5q0 42 33 67t105 25q24 0 49 -5.5t46.5 -17t37.5 -28.5t24 -40q6 -18 20 -26t31 -8q13 0 26 4.5t23.5 13t17 21t6.5 28.5q0 22 -15.5 54t-49.5 61t-87 49.5t-128 20.5
q-62 0 -114 -16t-90 -46t-59.5 -74t-22.5 -101q0 -51 19 -85.5t50.5 -58t71.5 -38.5t81.5 -26.5l81.5 -22t71.5 -25.5t50.5 -36.5t19 -54.5q0 -49 -44 -75t-119 -26q-77 0 -112.5 32t-48.5 85q-5 21 -19 30.5t-31 9.5q-13 0 -26.5 -6t-24 -16.5t-17 -25.5t-6.5 -33
q0 -33 15.5 -69t50 -67t88.5 -51t131 -20q62 0 119.5 15t101.5 45.5t70.5 78t26.5 112.5z" />
    <glyph glyph-name="T" unicode="T" horiz-adv-x="658" 
d="M253 658v-582q0 -32 22 -54t54 -22t54 22t22 54v582h174q27 0 46.5 19t19.5 47q0 27 -19.5 46t-46.5 19h-500q-27 0 -46.5 -19t-19.5 -46q0 -28 19.5 -47t46.5 -19h174z" />
    <glyph glyph-name="U" unicode="U" horiz-adv-x="692" 
d="M493 237q0 -28 -12.5 -50t-33 -37.5t-47 -23.5t-54.5 -8t-54.5 8t-47 23.5t-33 37.5t-12.5 50v476q0 32 -22.5 54t-54.5 22t-54 -22t-22 -54v-476q0 -74 25.5 -122.5t67.5 -77t96 -39.5t111 -11t111 11t96 39.5t67.5 77t25.5 122.5v476q0 32 -22 54t-54 22t-54.5 -22
t-22.5 -54v-476z" />
    <glyph glyph-name="V" unicode="V" horiz-adv-x="641" 
d="M320 0q28 0 47.5 15t28.5 41l229 637q4 9 4 21q0 13 -6 26.5t-16.5 24t-25.5 17.5t-33 7q-23 0 -41.5 -11t-25.5 -33l-161 -521l-160 521q-7 22 -25.5 33t-41.5 11q-21 0 -36 -7t-25 -18t-15 -24.5t-5 -25.5t4 -21l228 -637q9 -26 29 -41t47 -15z" />
    <glyph glyph-name="W" unicode="W" horiz-adv-x="962" 
d="M481 537l99 -451q8 -37 33 -61.5t63 -24.5t62 25t34 61l176 626q2 10 2 15q0 24 -18.5 43t-44.5 19q-34 0 -58 -19.5t-32 -52.5l-121 -493l-106 493q-7 33 -31 52.5t-58 19.5t-58 -19.5t-31 -52.5l-106 -493l-121 493q-8 33 -32 52.5t-58 19.5q-25 0 -44 -19t-19 -44
q0 -4 2 -14l176 -626q10 -36 34 -61t62 -25t63 24.5t33 61.5z" />
    <glyph glyph-name="X" unicode="X" horiz-adv-x="623" 
d="M448 757l-136 -236l-137 236q-10 17 -26 24.5t-34 7.5q-23 0 -38 -8t-24 -19.5t-12.5 -25t-3.5 -23.5q0 -23 12 -41l183 -266l-200 -290q-12 -18 -12 -39q0 -18 7 -32t18 -24t25 -15.5t29 -5.5q18 0 34.5 8t26.5 25l152 263l151 -263q10 -17 26.5 -25t34.5 -8
q12 0 25.5 4.5t25.5 13.5t20 23.5t8 35.5t-12 39l-199 290l182 266q13 19 13 41q0 10 -3.5 23t-12.5 25t-24 20t-39 8q-18 0 -34 -7.5t-26 -24.5z" />
    <glyph glyph-name="Y" unicode="Y" horiz-adv-x="616" 
d="M232 309v-234q0 -11 5 -24t14.5 -24.5t23.5 -19t33 -7.5q20 0 34.5 7t24 18t14 24t4.5 26v234l211 373q5 8 6.5 15.5t1.5 15.5q0 22 -9 36.5t-21 23.5t-25.5 12.5t-22.5 3.5q-21 0 -39 -9.5t-27 -29.5l-152 -332l-152 332q-9 20 -27 29.5t-38 9.5q-24 0 -39.5 -8.5
t-24 -20.5t-12 -25t-3.5 -22q0 -8 1.5 -15.5t6.5 -15.5z" />
    <glyph glyph-name="Z" unicode="Z" horiz-adv-x="736" 
d="M71 724q0 -28 19.5 -47t46.5 -19h359l-434 -527q-16 -19 -16 -43q0 -15 6 -30.5t17.5 -28.5t27.5 -21t37 -8h509q27 0 46.5 19t19.5 47q0 27 -19.5 46t-46.5 19h-386l431 527q16 19 16 43q0 15 -6 31t-17.5 28.5t-28 20.5t-36.5 8h-479q-27 0 -46.5 -19t-19.5 -46z" />
    <glyph glyph-name="bracketleft" unicode="[" horiz-adv-x="336" 
d="M46 -26q0 -32 10 -52.5t26 -32.5t34 -16.5t35 -4.5h105q22 0 37.5 15.5t15.5 37.5t-15.5 37.5t-37.5 15.5h-52q-26 0 -39.5 16t-13.5 36v737q0 28 17 40.5t36 12.5h52q22 0 37.5 15t15.5 37t-15.5 37.5t-37.5 15.5h-105q-30 0 -50.5 -10t-32.5 -26t-17 -34.5t-5 -34.5
v-842z" />
    <glyph glyph-name="backslash" unicode="\" horiz-adv-x="457" 
d="M17 727l327 -698q7 -14 20 -22t28 -8q23 0 38 16t15 38q0 9 -5 21l-327 698q-7 14 -20 22t-28 8q-5 0 -13.5 -2t-17.5 -7.5t-15.5 -16t-6.5 -27.5q0 -10 5 -22z" />
    <glyph glyph-name="bracketright" unicode="]" horiz-adv-x="329" 
d="M283 -26v842q0 16 -5 34.5t-17 34.5t-32.5 26t-50.5 10h-105q-22 0 -37.5 -15.5t-15.5 -37.5t15.5 -37t37.5 -15h52q19 0 36 -12.5t17 -40.5v-737q0 -20 -13.5 -36t-39.5 -16h-52q-22 0 -37.5 -15.5t-15.5 -37.5t15.5 -37.5t37.5 -15.5h105q16 0 34.5 4.5t34.5 16.5
t26 32.5t10 52.5z" />
    <glyph glyph-name="asciicircum" unicode="^" horiz-adv-x="280" 
d="M170 789q-14 14 -30 14t-30 -14l-79 -79q-5 -5 -8 -13t-3 -16q0 -12 9 -25.5t30 -13.5q17 0 28 11l53 53l53 -53q11 -11 28 -11q21 0 30 13.5t9 25.5q0 8 -3 16t-8 13z" />
    <glyph glyph-name="underscore" unicode="_" horiz-adv-x="631" 
d="M632 -184q22 0 37 15t15 37t-15 37.5t-37 15.5h-579q-22 0 -37.5 -15.5t-15.5 -37.5t15.5 -37t37.5 -15h579z" />
    <glyph glyph-name="grave" unicode="`" horiz-adv-x="222" 
d="M139 616q15 -10 29 -10q9 0 21.5 6.5t12.5 27.5q0 15 -9 30l-64 98q-14 21 -40 21q-11 0 -23 -4.5t-22.5 -13t-17 -21.5t-6.5 -31q0 -12 4.5 -22.5t15.5 -17.5z" />
    <glyph glyph-name="a" unicode="a" horiz-adv-x="564" 
d="M117 374q26 0 40 8t22.5 20t14.5 26.5t15.5 26.5t25.5 20t45 8q22 0 42 -4t35 -11.5t23.5 -19t8.5 -26.5q0 -32 -27.5 -46.5t-68.5 -22.5t-88.5 -16t-88.5 -26t-68.5 -53t-27.5 -97q0 -40 17 -70t44.5 -50.5t62 -30.5t68.5 -10q53 0 95 13t80 49q3 -27 22.5 -44.5
t46.5 -17.5q29 0 49 20t20 49v357q0 40 -17.5 68.5t-49 47.5t-74.5 28t-94 9q-54 0 -97 -11t-73 -30.5t-46 -46.5t-16 -59q0 -33 17.5 -45.5t41.5 -12.5zM387 280v-97q0 -20 -11.5 -35.5t-30 -26t-42 -16t-46.5 -5.5q-27 0 -45.5 6t-29.5 16.5t-15.5 23.5t-4.5 27
q0 56 73 69q60 11 95.5 22t56.5 16z" />
    <glyph glyph-name="b" unicode="b" horiz-adv-x="597" 
d="M358 0q49 0 89.5 21t69.5 59.5t44.5 91.5t15.5 117t-15.5 117.5t-44.5 92t-69.5 59.5t-89.5 21q-37 0 -65 -11t-47.5 -24.5t-31.5 -24.5t-18 -11q-5 0 -5 13v196q0 30 -21.5 51t-51.5 21q-29 0 -50.5 -21t-21.5 -51v-645q0 -29 21.5 -50.5t50.5 -21.5q30 0 51.5 21.5
t21.5 50.5q6 -9 17 -21.5t30.5 -23.5t48.5 -19t71 -8zM445 289q0 -79 -35 -125t-99 -46q-63 0 -98 46t-35 125q0 80 35 126t98 46q64 0 99 -46t35 -126z" />
    <glyph glyph-name="c" unicode="c" horiz-adv-x="558" 
d="M538 155q0 15 -8 28.5t-20 23.5t-26.5 16t-27.5 6q-14 0 -26 -7.5t-16 -25.5q-3 -13 -11 -28.5t-22 -29.5t-35.5 -23.5t-49.5 -9.5q-62 0 -97 43t-35 135t35 135t97 43q28 0 49 -9.5t35.5 -23.5t22.5 -29.5t11 -28.5q5 -18 16.5 -25.5t25.5 -7.5t28.5 6t26.5 16
t19.5 23.5t7.5 28.5q0 11 -13.5 38.5t-43 56.5t-75.5 51t-110 22q-59 0 -109.5 -21t-87.5 -60t-58 -93.5t-21 -121.5t21 -121.5t58 -93.5t87.5 -60t109.5 -21q68 0 114 22t74.5 51t41 56.5t12.5 38.5z" />
    <glyph glyph-name="d" unicode="d" horiz-adv-x="597" 
d="M406 72q0 -29 21 -50.5t51 -21.5t51.5 21.5t21.5 50.5v645q0 30 -21.5 51t-51.5 21t-51 -21t-21 -51v-196q0 -13 -5 -13q-6 0 -18 11t-32 24.5t-48 24.5t-65 11q-50 0 -90 -21t-68.5 -59.5t-44 -92t-15.5 -117.5t15.5 -117t44 -91.5t68.5 -59.5t90 -21q43 0 71.5 7.5
t47 18.5t29.5 23.5zM285 461q63 0 98.5 -46t35.5 -126q0 -79 -35.5 -125t-98.5 -46t-98.5 46t-35.5 125q0 80 35.5 126t98.5 46z" />
    <glyph glyph-name="e" unicode="e" horiz-adv-x="569" 
d="M498 246q25 0 38 23t13 58q0 37 -15 81t-46.5 82t-80 63.5t-115.5 25.5q-69 0 -120 -24t-85 -64.5t-50.5 -94t-16.5 -113.5t18.5 -113.5t54 -94t87.5 -64.5t118 -24q58 0 100 17.5t70 41t41.5 47t13.5 36.5t-6 25.5t-15 22.5t-21 16t-24 6q-19 0 -34 -18
q-17 -20 -30.5 -34.5t-27.5 -23.5t-30 -13.5t-37 -4.5q-35 0 -61.5 12t-44.5 30t-27 37.5t-9 34.5q0 12 5.5 19.5t16.5 7.5h320zM292 461q33 0 57 -11t39.5 -26.5t23 -32.5t7.5 -30q0 -19 -13 -19h-228q-15 0 -15 20q0 13 8 30t23.5 32.5t40 26t57.5 10.5z" />
    <glyph glyph-name="f" unicode="f" horiz-adv-x="413" 
d="M253 474h71q19 0 32.5 13t13.5 33q0 19 -13.5 32.5t-32.5 13.5h-71v13q0 53 19 72.5t62 19.5q35 0 47 16.5t12 42.5q0 37 -31.5 48t-83.5 11q-51 0 -84 -15t-52 -42.5t-26.5 -66.5t-7.5 -86v-13h-42q-19 0 -32.5 -13.5t-13.5 -32.5q0 -20 13.5 -33t32.5 -13h42v-402
q0 -29 21.5 -50.5t51.5 -21.5q29 0 50.5 21.5t21.5 50.5v402z" />
    <glyph glyph-name="g" unicode="g" horiz-adv-x="613" 
d="M449 303q0 -33 -11.5 -61.5t-31.5 -50t-47.5 -34t-59.5 -12.5t-59.5 11t-47.5 31.5t-31.5 50t-11.5 65.5t11.5 65.5t31.5 50t47.5 31.5t59.5 11q33 0 60.5 -13.5t47.5 -35.5t31 -50.5t11 -58.5zM442 507l-17 17t-30.5 24t-45.5 21.5t-62 9.5q-59 0 -108.5 -22t-84.5 -60
t-54.5 -88t-19.5 -106t19.5 -106.5t54.5 -88.5t84.5 -60t108.5 -22q36 0 62 6.5t44 16.5t29.5 21.5t19.5 22.5v-35q0 -30 -4 -57t-18 -47.5t-41 -33t-72 -12.5t-68.5 13t-38.5 28.5l-27.5 28.5t-35.5 13q-25 0 -43.5 -18.5t-18.5 -45.5q0 -21 13 -41q20 -30 43.5 -49
t51 -29.5t58.5 -14.5t66 -4q49 0 97 13.5t85.5 40t61 66t23.5 91.5v507q0 27 -19.5 46t-46.5 19t-46.5 -16.5t-19.5 -48.5z" />
    <glyph glyph-name="h" unicode="h" horiz-adv-x="572" 
d="M533 72v329q0 37 -12.5 69.5t-35.5 56.5t-57.5 38t-77.5 14q-32 0 -58 -10.5t-45.5 -22.5t-32.5 -22.5t-19 -10.5q-4 0 -4 6v198q0 30 -21.5 51t-51.5 21q-29 0 -50.5 -21t-21.5 -51v-645q0 -29 21.5 -50.5t50.5 -21.5q30 0 51.5 21.5t21.5 50.5v279q0 42 28.5 70.5
t69.5 28.5q42 0 70.5 -28.5t28.5 -69.5v-280q0 -29 21.5 -50.5t51.5 -21.5q29 0 50.5 21.5t21.5 50.5z" />
    <glyph glyph-name="i" unicode="i" horiz-adv-x="209" 
d="M32 717q0 -30 21.5 -51t50.5 -21q30 0 51.5 21t21.5 51t-21.5 51t-51.5 21q-29 0 -50.5 -21t-21.5 -51zM177 493q0 30 -21.5 51.5t-51.5 21.5q-29 0 -50.5 -21.5t-21.5 -51.5v-421q0 -29 21 -50.5t51 -21.5t51.5 21t21.5 51v421z" />
    <glyph glyph-name="j" unicode="j" horiz-adv-x="270" 
d="M12 -79q-38 0 -58.5 -14.5t-20.5 -51.5q0 -39 38 -52.5t115 -13.5q44 0 72.5 13t44.5 33.5t22 46.5t6 52v559q0 30 -21.5 51.5t-51.5 21.5q-29 0 -50.5 -21.5t-21.5 -51.5v-493q0 -29 -5.5 -44.5t-15.5 -23.5t-23.5 -9.5t-29.5 -1.5zM86 717q0 -30 21.5 -51t50.5 -21
q30 0 51.5 21t21.5 51t-21.5 51t-51.5 21q-29 0 -50.5 -21t-21.5 -51z" />
    <glyph glyph-name="k" unicode="k" horiz-adv-x="555" 
d="M191 186l71 71l146 -233q8 -13 21 -18.5t27 -5.5q21 0 36 8t24.5 19t14 24t4.5 24q0 19 -11 36l-164 244l117 116q10 9 15 21.5t5 24.5q0 15 -6 26.5t-15 19.5t-20 12t-20 4q-25 0 -43 -20l-202 -222v380q0 30 -21.5 51t-51.5 21q-29 0 -50.5 -21t-21.5 -51v-645
q0 -29 21.5 -50.5t50.5 -21.5q30 0 51.5 21.5t21.5 50.5v114z" />
    <glyph glyph-name="l" unicode="l" horiz-adv-x="237" 
d="M191 717q0 30 -21.5 51t-51.5 21q-29 0 -50.5 -21t-21.5 -51v-645q0 -29 21 -50.5t51 -21.5t51.5 21t21.5 51v645z" />
    <glyph glyph-name="m" unicode="m" horiz-adv-x="913" 
d="M874 72v363q0 40 -17.5 67.5t-43 44.5t-55 24.5t-52.5 7.5q-46 0 -78 -8.5t-54.5 -21.5t-36.5 -28.5t-23 -29.5q-11 16 -24 31.5t-32 28t-45.5 20.5t-65.5 8q-33 0 -59.5 -7.5t-46.5 -18.5t-34 -23.5t-23 -22.5q0 29 -21 50.5t-51 21.5t-51.5 -21.5t-21.5 -50.5v-435
q0 -29 21.5 -50.5t51.5 -21.5t51 21.5t21 50.5v287q0 42 29 71t71 29t71 -29t29 -71v-287q0 -29 21.5 -50.5t51.5 -21.5q29 0 50.5 21.5t21.5 50.5v287q0 42 29 71t71 29t71 -29t29 -71v-287q0 -29 21 -50.5t51 -21.5t51.5 21.5t21.5 50.5z" />
    <glyph glyph-name="n" unicode="n" horiz-adv-x="578" 
d="M539 402q0 40 -14.5 72.5t-40 55.5t-59.5 36t-72 13q-34 0 -61 -7.5t-48 -18t-36 -23.5t-24 -23q0 29 -21 50.5t-51 21.5t-51.5 -21.5t-21.5 -50.5v-435q0 -29 21.5 -50.5t51.5 -21.5t51 21.5t21 50.5v282q0 22 8.5 41t22.5 33t33.5 22.5t40.5 8.5q22 0 41 -8.5t33 -22.5
t22.5 -33t8.5 -41v-282q0 -29 21.5 -50.5t51.5 -21.5t51 21.5t21 50.5v330z" />
    <glyph glyph-name="o" unicode="o" horiz-adv-x="619" 
d="M309 -13q61 0 114 21.5t92 60.5t61.5 93.5t22.5 120.5t-22.5 120.5t-61.5 93.5t-92 60.5t-114 21.5q-60 0 -113 -21.5t-92 -60.5t-61.5 -93.5t-22.5 -120.5t22.5 -120.5t61.5 -93.5t92 -60.5t113 -21.5zM467 283q0 -38 -11 -73t-31 -61t-49.5 -41.5t-66.5 -15.5t-66 15.5
t-49.5 41.5t-31.5 61t-11 73t11 72.5t31.5 61t49.5 42t66 15.5t66.5 -15.5t49.5 -42t31 -61t11 -72.5z" />
    <glyph glyph-name="p" unicode="p" horiz-adv-x="597" 
d="M358 579q-39 0 -66.5 -6.5t-47 -17t-32 -23.5t-21.5 -25q0 29 -21.5 50.5t-51.5 21.5q-29 0 -50.5 -21.5t-21.5 -50.5v-645q0 -30 21.5 -51.5t50.5 -21.5q30 0 51.5 21.5t21.5 51.5v196q0 13 5 13q6 0 18 -11t31.5 -24.5t47.5 -24.5t65 -11q49 0 89.5 21t69.5 59.5
t44.5 91.5t15.5 117t-15.5 117.5t-44.5 92t-69.5 59.5t-89.5 21zM445 289q0 -79 -35 -125t-99 -46q-63 0 -98 46t-35 125q0 80 35 126t98 46q64 0 99 -46t35 -126z" />
    <glyph glyph-name="q" unicode="q" horiz-adv-x="596" 
d="M238 579q-50 0 -90 -21t-68.5 -59.5t-44 -92t-15.5 -117.5t15.5 -117t44 -91.5t68.5 -59.5t90 -21q37 0 65 11t47.5 24.5t31.5 24.5t18 11q5 0 5 -13v-196q0 -30 21.5 -51.5t51.5 -21.5t51 21.5t21 51.5v645q0 29 -21 50.5t-51 21.5t-51 -21.5t-21 -50.5q-6 9 -17 21.5
t-30.5 23.5t-48.5 19t-72 8zM151 289q0 80 35.5 126t98.5 46t98.5 -46t35.5 -126q0 -79 -35.5 -125t-98.5 -46t-98.5 46t-35.5 125z" />
    <glyph glyph-name="r" unicode="r" horiz-adv-x="389" 
d="M272 438q16 6 34 9.5t33.5 9.5t26 17.5t10.5 34.5q0 28 -14.5 49t-54.5 21q-18 0 -36 -7.5t-34.5 -18t-30 -23.5t-22.5 -23q0 29 -21 50.5t-51 21.5t-51.5 -21.5t-21.5 -50.5v-435q0 -29 21.5 -50.5t50.5 -21.5q30 0 51.5 21t21.5 51v224q0 17 3 37t12 39.5t26.5 37
t46.5 28.5z" />
    <glyph glyph-name="s" unicode="s" horiz-adv-x="536" 
d="M510 189q0 47 -25.5 75.5t-63.5 46t-82 28l-82 20t-63.5 22.5t-25.5 37q0 29 26 42.5t65 13.5q18 0 36.5 -4t35 -12.5t30 -21.5t21.5 -32q5 -14 16 -19.5t23 -5.5q11 0 22.5 4.5t21 12t15.5 18.5t6 24q0 21 -16.5 45.5t-46 45.5t-71.5 35.5t-93 14.5q-50 0 -91 -13
t-70.5 -36t-45.5 -56t-16 -72q0 -49 25 -78t62 -47t81 -28.5t81 -21t62 -25.5t25 -42q0 -17 -8.5 -29.5t-22 -21t-30.5 -13t-34 -4.5q-52 0 -84 26t-49 68q-6 15 -20 22t-31 7q-25 0 -46.5 -14t-21.5 -37q0 -27 16.5 -58.5t48.5 -57.5t79 -43.5t108 -17.5q48 0 90.5 13
t74 38.5t50 63t18.5 87.5z" />
    <glyph glyph-name="t" unicode="t" horiz-adv-x="390" 
d="M253 691q0 30 -21.5 51t-50.5 21q-30 0 -51.5 -21t-21.5 -51v-112v-13h-42q-19 0 -32.5 -13.5t-13.5 -32.5q0 -20 13.5 -33t32.5 -13h42v-402q0 -29 21.5 -50.5t51.5 -21.5q29 0 50.5 21.5t21.5 50.5v402h71q19 0 32.5 13t13.5 33q0 19 -13.5 32.5t-32.5 13.5h-71v13v112
z" />
    <glyph glyph-name="u" unicode="u" horiz-adv-x="578" 
d="M39 177q0 -40 15 -72.5t40.5 -56t59.5 -36t72 -12.5q34 0 61 7.5t48 18t36 23t24 23.5q0 -29 21 -50.5t51 -21.5t51 21.5t21 50.5v435q0 29 -21 50.5t-51 21.5t-51.5 -21.5t-21.5 -50.5v-282q0 -22 -8.5 -41t-22.5 -33.5t-33 -22.5t-41 -8q-21 0 -40.5 8t-33.5 22.5
t-22.5 33.5t-8.5 41v282q0 29 -21 50.5t-51 21.5t-51.5 -21.5t-21.5 -50.5v-330z" />
    <glyph glyph-name="v" unicode="v" horiz-adv-x="509" 
d="M365 540l-111 -369l-110 369q-6 20 -22.5 29.5t-36.5 9.5q-26 0 -49 -17t-23 -49q0 -9 3 -18l149 -430q11 -30 34 -47.5t55 -17.5t55 17.5t34 47.5l150 430q3 9 3 18q0 16 -7 28.5t-17.5 20.5t-23 12.5t-24.5 4.5q-20 0 -36.5 -9.5t-22.5 -29.5z" />
    <glyph glyph-name="w" unicode="w" horiz-adv-x="828" 
d="M414 387l92 -315q9 -30 31.5 -51t50.5 -21q38 0 62 20t34 52l128 417q3 10 3 20q0 26 -19 48t-48 22q-23 0 -41 -14t-24 -37l-95 -345l-93 333q-8 29 -29.5 46t-51.5 17t-52 -17t-30 -46l-93 -333l-94 345q-6 23 -24.5 37t-41.5 14q-11 0 -22.5 -4t-21.5 -12.5t-16 -21.5
t-6 -31q0 -11 3 -21l127 -417q10 -32 34 -52t62 -20q32 0 52.5 21t29.5 51z" />
    <glyph glyph-name="x" unicode="x" horiz-adv-x="509" 
d="M191 300l-162 -205q-5 -6 -7 -13t-2 -15q0 -17 7 -29.5t18 -20.5t23.5 -12.5t24.5 -4.5q14 0 25 5t19 17l118 182l117 -182q8 -12 19 -17t25 -5q20 0 34 7t22.5 17.5t12.5 22t4 20.5q0 8 -2 15t-7 13l-162 205l137 191q9 13 9 29q0 25 -18.5 42t-43.5 17
q-14 0 -25.5 -5.5t-19.5 -17.5l-102 -161l-103 161q-8 12 -19.5 17.5t-25.5 5.5q-25 0 -43.5 -17t-18.5 -42q0 -16 9 -29z" />
    <glyph glyph-name="y" unicode="y" horiz-adv-x="533" 
d="M73 -86q-27 0 -39.5 -14t-12.5 -34q0 -14 5.5 -27.5t16 -24.5t25 -18t33.5 -7h52q24 0 50.5 3.5t50.5 16.5t44.5 37t34.5 66l184 574q3 9 3 19q0 34 -24 54t-54 20q-23 0 -42.5 -12t-25.5 -35l-96 -379l-123 380q-7 22 -26 33.5t-41 11.5q-21 0 -35.5 -7.5t-23 -18.5
t-12.5 -24t-4 -25q0 -17 6 -32l167 -424q9 -23 13 -40t4 -31q0 -23 -10.5 -35.5t-28.5 -18.5t-41.5 -7t-49.5 -1z" />
    <glyph glyph-name="z" unicode="z" horiz-adv-x="558" 
d="M55 520q0 -25 17 -42t42 -17h224l-296 -334q-22 -25 -22 -53q0 -15 6 -28t16 -23.5t23.5 -16.5t28.5 -6h385q25 0 42 16t17 43q0 25 -17 42t-42 17h-262l297 326q24 27 24 58t-22 54t-64 23h-338q-25 0 -42 -17.5t-17 -41.5z" />
    <glyph glyph-name="braceleft" unicode="{" horiz-adv-x="429" 
d="M192 316q-28 0 -40.5 17t-12.5 36v52q0 28 17 40.5t36 12.5h52v289q0 28 17 40.5t36 12.5h53q22 0 37 15t15 37t-15 37.5t-37 15.5h-106q-30 0 -50.5 -10t-32.5 -26t-17 -34.5t-5 -34.5v-237h-6q-30 0 -50.5 -10t-32.5 -25.5t-17.5 -34t-5.5 -35.5v-158q0 -28 9.5 -48
t24.5 -32.5t34 -18.5t38 -6h6v-237q0 -32 10.5 -52.5t26.5 -32.5t34.5 -16.5t33.5 -4.5h106q22 0 37 15.5t15 37.5t-15 37.5t-37 15.5h-53q-26 0 -39.5 16t-13.5 36v290h-52z" />
    <glyph glyph-name="bar" unicode="|" horiz-adv-x="197" 
d="M151 789q0 22 -15.5 37.5t-37.5 15.5t-37 -15.5t-15 -37.5v-789q0 -22 15 -37.5t37 -15.5t37.5 15.5t15.5 37.5v789z" />
    <glyph glyph-name="braceright" unicode="}" horiz-adv-x="429" 
d="M237 316h-52v-290q0 -20 -13.5 -36t-39.5 -16h-53q-22 0 -37 -15.5t-15 -37.5t15 -37.5t37 -15.5h106q15 0 33.5 4.5t34.5 16.5t26.5 32.5t10.5 52.5v237h6q19 0 38 6t34 18.5t24.5 32.5t9.5 48v158q0 17 -5.5 35.5t-17.5 34t-32.5 25.5t-50.5 10h-6v237q0 16 -5 34.5
t-17 34.5t-32.5 26t-50.5 10h-106q-22 0 -37 -15.5t-15 -37.5t15 -37t37 -15h53q19 0 36 -12.5t17 -40.5v-289h52q19 0 36 -12.5t17 -40.5v-52q0 -19 -12.5 -36t-40.5 -17z" />
    <glyph glyph-name="asciitilde" unicode="~" horiz-adv-x="436" 
d="M87 645q16 0 26 7.5t18 16l15.5 16t18.5 7.5q6 0 14 -3l99 -39q14 -5 34 -5q19 0 37.5 7t33.5 19t24 28.5t9 35.5q0 27 -19.5 46.5t-46.5 19.5q-16 0 -26 -7.5t-18 -16l-15.5 -16t-18.5 -7.5q-8 0 -15 3l-99 39q-15 5 -33 5q-20 0 -38.5 -7t-33.5 -19t-24 -28.5t-9 -35.5
q0 -27 20.5 -46.5t46.5 -19.5z" />
    <glyph glyph-name="quotesinglbase" unicode="&#x201a;" horiz-adv-x="194" 
d="M20 76q0 -32 22 -54t54 -22l-30 -31q-8 -8 -8 -19q0 -14 12.5 -26t28.5 -12q14 0 23 9q12 12 21.5 28t16.5 34.5t10.5 37.5t3.5 36q0 39 -21 67.5t-57 28.5q-32 0 -54 -22.5t-22 -54.5z" />
    <glyph glyph-name="florin" unicode="&#x192;" horiz-adv-x="881" 
d="M46 789v-789h789v789h-789z" />
    <glyph glyph-name="quotedblbase" unicode="&#x201e;" horiz-adv-x="194" 
d="M20 76q0 -32 22 -54t54 -22l-30 -31q-8 -8 -8 -19q0 -14 12.5 -26t28.5 -12q14 0 23 9q12 12 21.5 28t16.5 34.5t10.5 37.5t3.5 36q0 39 -21 67.5t-57 28.5q-32 0 -54 -22.5t-22 -54.5zM200 76q0 -32 22 -54t54 -22l-30 -31q-8 -8 -8 -19q0 -14 12.5 -26t28.5 -12
q14 0 23 9q12 12 21.5 28t16.5 34.5t10.5 37.5t3.5 36q0 39 -21 67.5t-57 28.5q-32 0 -54 -22.5t-22 -54.5z" />
    <glyph glyph-name="ellipsis" unicode="&#x2026;" horiz-adv-x="551" 
d="M378 76q0 -32 22 -54t54 -22t54.5 22t22.5 54t-22.5 54.5t-54.5 22.5t-54 -22.5t-22 -54.5zM199 76q0 -32 22 -54t54 -22t54.5 22t22.5 54t-22.5 54.5t-54.5 22.5t-54 -22.5t-22 -54.5zM20 76q0 -32 22 -54t54 -22t54.5 22t22.5 54t-22.5 54.5t-54.5 22.5t-54 -22.5
t-22 -54.5z" />
    <glyph glyph-name="dagger" unicode="&#x2020;" horiz-adv-x="461" 
d="M178 105q0 -22 15.5 -37t37.5 -15t36.5 15t15.5 37v369h106q22 0 37 15t15 37t-15 37.5t-37 15.5h-106v105q0 22 -15 37.5t-37 15.5t-37.5 -15.5t-15.5 -37.5v-105h-105q-22 0 -37.5 -15.5t-15.5 -37.5t15.5 -37t37.5 -15h105v-369z" />
    <glyph glyph-name="daggerdbl" unicode="&#x2021;" horiz-adv-x="461" 
d="M283 474h106q22 0 37 15t15 37t-15 37.5t-37 15.5h-106v105q0 22 -15 37.5t-37 15.5t-37.5 -15.5t-15.5 -37.5v-105h-105q-22 0 -37.5 -15.5t-15.5 -37.5t15.5 -37t37.5 -15h105v-158h-105q-22 0 -37.5 -15.5t-15.5 -37.5t15.5 -37t37.5 -15h105v-106q0 -22 15.5 -37
t37.5 -15t37 15t15 37v106h106q22 0 37 15t15 37t-15 37.5t-37 15.5h-106v158z" />
    <glyph glyph-name="circumflex" unicode="&#x2c6;" horiz-adv-x="280" 
d="M170 789q-14 14 -30 14t-30 -14l-79 -79q-5 -5 -8 -13t-3 -16q0 -12 9 -25.5t30 -13.5q17 0 28 11l53 53l53 -53q11 -11 28 -11q21 0 30 13.5t9 25.5q0 8 -3 16t-8 13z" />
    <glyph glyph-name="perthousand" unicode="&#x2030;" horiz-adv-x="1219" 
d="M184 395q77 0 121 55t44 149q0 46 -11.5 84t-33 64.5t-52 41t-68.5 14.5q-77 0 -120.5 -55t-43.5 -149t43.5 -149t120.5 -55zM263 599q0 -63 -20.5 -91t-58.5 -28t-58.5 28t-20.5 91q0 62 20.5 90t58.5 28t58.5 -28t20.5 -90zM667 0q77 0 121 55t44 149q0 46 -11.5 84
t-33 64.5t-52 41t-68.5 14.5q-77 0 -120.5 -55t-43.5 -149t43.5 -149t120.5 -55zM746 204q0 -63 -20.5 -90.5t-58.5 -27.5t-58.5 27.5t-20.5 90.5t20.5 90.5t58.5 27.5t58.5 -27.5t20.5 -90.5zM645 727q5 12 5 22q0 17 -6.5 27.5t-15.5 16t-18 7.5t-13 2q-15 0 -28 -8
t-20 -22l-327 -698q-5 -12 -5 -21q0 -22 15 -38t38 -16q15 0 28 8t20 22zM1034 0q77 0 121 55t44 149q0 46 -11.5 84t-33 64.5t-52 41t-68.5 14.5q-77 0 -120.5 -55t-43.5 -149t43.5 -149t120.5 -55zM1113 204q0 -63 -20.5 -90.5t-58.5 -27.5t-58.5 27.5t-20.5 90.5
t20.5 90.5t58.5 27.5t58.5 -27.5t20.5 -90.5z" />
    <glyph glyph-name="Scaron" unicode="&#x160;" horiz-adv-x="659" 
d="M632 238q0 57 -19.5 95.5t-51.5 64t-72.5 40.5t-83 25.5t-83 19t-72.5 21t-51.5 31t-19.5 49.5q0 42 33 67t105 25q24 0 49 -5.5t46.5 -17t37.5 -28.5t24 -40q6 -18 20 -26t31 -8q13 0 26 4.5t23.5 13t17 21t6.5 28.5q0 22 -15.5 54t-49.5 61t-87 49.5t-128 20.5
q-62 0 -114 -16t-90 -46t-59.5 -74t-22.5 -101q0 -51 19 -85.5t50.5 -58t71.5 -38.5t81.5 -26.5l81.5 -22t71.5 -25.5t50.5 -36.5t19 -54.5q0 -49 -44 -75t-119 -26q-77 0 -112.5 32t-48.5 85q-5 21 -19 30.5t-31 9.5q-13 0 -26.5 -6t-24 -16.5t-17 -25.5t-6.5 -33
q0 -33 15.5 -69t50 -67t88.5 -51t131 -20q62 0 119.5 15t101.5 45.5t70.5 78t26.5 112.5zM221 969q0 -42 29 -71t71 -29t71 29t29 71q0 14 -9 23t-23 9t-23 -9t-9 -23q0 -15 -10.5 -25.5t-25.5 -10.5t-25.5 10.5t-10.5 25.5q0 14 -9 23t-23 9t-23 -9t-9 -23z" />
    <glyph glyph-name="guilsinglleft" unicode="&#x2039;" horiz-adv-x="286" 
d="M30 434q-18 -18 -18 -39q0 -22 18 -40l145 -144q16 -16 38 -16q13 0 23 5.5t16.5 13.5t10 17t3.5 17q0 22 -16 38l-109 109l109 109q16 16 16 37q0 23 -16 38t-38 15t-37 -15z" />
    <glyph glyph-name="OE" unicode="&#x152;" horiz-adv-x="1179" 
d="M591 395q0 -51 -12 -100.5t-38 -89t-66 -63.5t-97 -24t-97.5 24t-66.5 63.5t-38 89t-12 100.5t12 100.5t38 88.5t66.5 63t97.5 24t97 -24t66 -63t38 -88.5t12 -100.5zM593 731q-54 40 -105 56t-110 16q-89 0 -156 -34t-112 -91t-67.5 -130.5t-22.5 -152.5
q0 -80 22.5 -153.5t67.5 -130t112 -90.5t156 -34q57 0 109 16t106 56q7 -35 31 -47t46 -12h423q28 0 47 19t19 47q0 27 -19 46t-47 19h-350v224h295q27 0 46.5 19.5t19.5 46.5t-19.5 46.5t-46.5 19.5h-295v171h350q28 0 47 19t19 47q0 27 -19 46t-47 19h-423q-21 0 -35.5 -7
t-23.5 -17t-13 -19.5t-5 -14.5z" />
    <glyph glyph-name="quoteleft" unicode="&#x2018;" horiz-adv-x="194" 
d="M174 778q0 32 -22 54t-54 22l30 31q8 8 8 19q0 14 -12.5 26t-28.5 12q-14 0 -23 -9q-12 -12 -21.5 -28t-16.5 -34.5t-10.5 -37.5t-3.5 -36q0 -39 21 -67.5t57 -28.5q32 0 54 22.5t22 54.5z" />
    <glyph glyph-name="quoteright" unicode="&#x2019;" horiz-adv-x="194" 
d="M20 865q0 -32 22 -54t54 -22l-30 -31q-8 -8 -8 -19q0 -14 12.5 -26t28.5 -12q14 0 23 9q12 12 21.5 28t16.5 34.5t10.5 37.5t3.5 36q0 39 -21 67.5t-57 28.5q-32 0 -54 -22.5t-22 -54.5z" />
    <glyph glyph-name="quotedblleft" unicode="&#x201c;" horiz-adv-x="374" 
d="M174 778q0 32 -22 54t-54 22l30 31q8 8 8 19q0 14 -12.5 26t-28.5 12q-14 0 -23 -9q-12 -12 -21.5 -28t-16.5 -34.5t-10.5 -37.5t-3.5 -36q0 -39 21 -67.5t57 -28.5q32 0 54 22.5t22 54.5zM354 778q0 32 -22 54t-54 22l30 31q8 8 8 19q0 14 -12.5 26t-28.5 12
q-14 0 -23 -9q-12 -12 -21.5 -28t-16.5 -34.5t-10.5 -37.5t-3.5 -36q0 -39 21 -67.5t57 -28.5q32 0 54 22.5t22 54.5z" />
    <glyph glyph-name="quotedblright" unicode="&#x201d;" horiz-adv-x="374" 
d="M20 865q0 -32 22 -54t54 -22l-30 -31q-8 -8 -8 -19q0 -14 12.5 -26t28.5 -12q14 0 23 9q12 12 21.5 28t16.5 34.5t10.5 37.5t3.5 36q0 39 -21 67.5t-57 28.5q-32 0 -54 -22.5t-22 -54.5zM200 865q0 -32 22 -54t54 -22l-30 -31q-8 -8 -8 -19q0 -14 12.5 -26t28.5 -12
q14 0 23 9q12 12 21.5 28t16.5 34.5t10.5 37.5t3.5 36q0 39 -21 67.5t-57 28.5q-32 0 -54 -22.5t-22 -54.5z" />
    <glyph glyph-name="bullet" unicode="&#x2022;" horiz-adv-x="346" 
d="M20 395q0 -32 12 -59.5t33 -48.5t48.5 -33t59.5 -12q31 0 59 12t49 33t33 48.5t12 59.5q0 31 -12 59t-33 48.5t-49 32.5t-59 12q-32 0 -59.5 -12t-48.5 -32.5t-33 -48.5t-12 -59z" />
    <glyph glyph-name="endash" unicode="&#x2013;" horiz-adv-x="540" 
d="M468 342q21 0 36.5 15.5t15.5 37.5t-15.5 37t-36.5 15h-395q-22 0 -37.5 -15t-15.5 -37t15.5 -37.5t37.5 -15.5h395z" />
    <glyph glyph-name="emdash" unicode="&#x2014;" horiz-adv-x="1040" 
d="M968 342q21 0 36.5 15.5t15.5 37.5t-15.5 37t-36.5 15h-895q-22 0 -37.5 -15t-15.5 -37t15.5 -37.5t37.5 -15.5h895z" />
    <glyph glyph-name="tilde" unicode="&#x2dc;" horiz-adv-x="436" 
d="M87 645q16 0 26 7.5t18 16l15.5 16t18.5 7.5q6 0 14 -3l99 -39q14 -5 34 -5q19 0 37.5 7t33.5 19t24 28.5t9 35.5q0 27 -19.5 46.5t-46.5 19.5q-16 0 -26 -7.5t-18 -16l-15.5 -16t-18.5 -7.5q-8 0 -15 3l-99 39q-15 5 -33 5q-20 0 -38.5 -7t-33.5 -19t-24 -28.5t-9 -35.5
q0 -27 20.5 -46.5t46.5 -19.5z" />
    <glyph glyph-name="trademark" unicode="&#x2122;" horiz-adv-x="1148" 
d="M188 693v-427q0 -23 16.5 -39.5t39.5 -16.5t39.5 16.5t16.5 39.5v427h128q20 0 34 14t14 34t-14 34t-34 14h-367q-20 0 -34 -14t-14 -34t14 -34t34 -14h127zM751 263q7 -24 25 -38.5t44 -14.5t44.5 14.5t25.5 38.5l106 381v-381q0 -22 15.5 -37.5t37.5 -15.5t37.5 15.5
t15.5 37.5v449q0 17 -7.5 31.5t-20 24.5t-29 15.5t-33.5 5.5q-32 0 -55 -17.5t-32 -48.5l-105 -370l-104 370q-8 31 -32 48.5t-56 17.5q-17 0 -33.5 -5.5t-29 -15.5t-20 -24.5t-7.5 -31.5v-449q0 -22 15.5 -37.5t38.5 -15.5q22 0 37.5 15.5t15.5 37.5v381z" />
    <glyph glyph-name="scaron" unicode="&#x161;" horiz-adv-x="536" 
d="M510 189q0 47 -25.5 75.5t-63.5 46t-82 28l-82 20t-63.5 22.5t-25.5 37q0 29 26 42.5t65 13.5q18 0 36.5 -4t35 -12.5t30 -21.5t21.5 -32q5 -14 16 -19.5t23 -5.5q11 0 22.5 4.5t21 12t15.5 18.5t6 24q0 21 -16.5 45.5t-46 45.5t-71.5 35.5t-93 14.5q-50 0 -91 -13
t-70.5 -36t-45.5 -56t-16 -72q0 -49 25 -78t62 -47t81 -28.5t81 -21t62 -25.5t25 -42q0 -17 -8.5 -29.5t-22 -21t-30.5 -13t-34 -4.5q-52 0 -84 26t-49 68q-6 15 -20 22t-31 7q-25 0 -46.5 -14t-21.5 -37q0 -27 16.5 -58.5t48.5 -57.5t79 -43.5t108 -17.5q48 0 90.5 13
t74 38.5t50 63t18.5 87.5zM159 757q0 -42 29 -71t71 -29t71 29t29 71q0 14 -9 23t-23 9t-23 -9t-9 -23q0 -15 -10.5 -25.5t-25.5 -10.5t-25.5 10.5t-10.5 25.5q0 14 -9 23t-23 9t-23 -9t-9 -23z" />
    <glyph glyph-name="guilsinglright" unicode="&#x203a;" horiz-adv-x="286" 
d="M111 579q-15 15 -37 15q-28 0 -41 -18t-13 -34q0 -22 16 -38l109 -109l-109 -109q-16 -16 -16 -38q0 -13 5.5 -23t13.5 -16.5t17 -10t17 -3.5q22 0 38 16l145 144q18 18 18 40q0 21 -18 39z" />
    <glyph glyph-name="oe" unicode="&#x153;" horiz-adv-x="1017" 
d="M739 461q34 0 58 -11t39.5 -26.5t23 -32.5t7.5 -30q0 -19 -13 -19h-228q-16 0 -16 21q0 13 8 30t23.5 32t40 25.5t57.5 10.5zM531 87q44 -54 98 -77t117 -23q55 0 97.5 17.5t70.5 40.5t42.5 47t14.5 38q0 13 -6 25.5t-15 22t-21 15t-24 5.5q-21 0 -35 -17
q-16 -20 -29.5 -34.5t-27.5 -23.5t-30 -13.5t-37 -4.5q-35 0 -61.5 12t-44.5 30t-27 37.5t-9 34.5q0 12 5.5 19.5t16.5 7.5h320q25 0 38 23t13 58q0 37 -15 81t-46.5 82t-80.5 63.5t-116 25.5q-58 0 -113.5 -21t-96.5 -76q-3 3 -17.5 19t-42 33t-67.5 31t-93 14
q-60 0 -113 -21.5t-92 -60.5t-61.5 -93.5t-22.5 -120.5t22.5 -120.5t61.5 -93.5t92 -60.5t113 -21.5q61 0 118 23t104 77zM467 283q0 -38 -11 -73t-31 -61t-49.5 -41.5t-66.5 -15.5t-66 15.5t-49.5 41.5t-31 61t-10.5 73t10.5 72.5t31 61t49.5 42t66 15.5t66.5 -15.5
t49.5 -42t31 -61t11 -72.5z" />
    <glyph glyph-name="Ydieresis" unicode="&#x178;" horiz-adv-x="616" 
d="M176 928q0 -25 17.5 -42.5t42.5 -17.5q24 0 41.5 17.5t17.5 42.5q0 24 -17.5 41.5t-41.5 17.5q-25 0 -42.5 -17.5t-17.5 -41.5zM321 928q0 -25 17.5 -42.5t42.5 -17.5q24 0 41.5 17.5t17.5 42.5q0 24 -17.5 41.5t-41.5 17.5q-25 0 -42.5 -17.5t-17.5 -41.5zM232 309v-234
q0 -11 5 -24t14.5 -24.5t23.5 -19t33 -7.5q20 0 34.5 7t24 18t14 24t4.5 26v234l211 373q5 8 6.5 15.5t1.5 15.5q0 22 -9 36.5t-21 23.5t-25.5 12.5t-22.5 3.5q-21 0 -39 -9.5t-27 -29.5l-152 -332l-152 332q-9 20 -27 29.5t-38 9.5q-24 0 -39.5 -8.5t-24 -20.5t-12 -25
t-3.5 -22q0 -8 1.5 -15.5t6.5 -15.5z" />
    <glyph glyph-name="exclamdown" unicode="&#xa1;" horiz-adv-x="245" 
d="M122 637q32 0 54.5 22t22.5 54t-22.5 54t-54.5 22t-54 -22t-22 -54t22 -54t54 -22zM185 63v445q0 26 -18.5 44.5t-44.5 18.5t-44.5 -18.5t-18.5 -44.5v-445q0 -26 18.5 -44.5t44.5 -18.5t44.5 18.5t18.5 44.5z" />
    <glyph glyph-name="cent" unicode="&#xa2;" horiz-adv-x="558" 
d="M270 252q-21 3 -40.5 13.5t-34 31.5t-23 53t-8.5 78t10 78t25 53t34 31.5t37 12.5v-351zM322 133q51 1 91 21.5t67.5 47.5t42.5 55t15 43t-8 28.5t-20 23.5t-26.5 16t-27.5 6q-14 0 -25.5 -8t-16.5 -25q-3 -13 -10.5 -27.5t-19 -27.5t-27 -22.5t-35.5 -10.5v350
q19 -4 35 -13.5t28 -22t19 -26.5t10 -27q4 -17 15.5 -25t26.5 -8q13 0 27.5 6t26.5 16t20 23.5t8 28.5q0 21 -17 49.5t-46.5 54t-69 44t-83.5 20.5v53q0 11 -7.5 19t-18.5 8t-18.5 -8t-7.5 -19v-53q-51 -5 -96.5 -26.5t-79.5 -59t-54 -90.5t-20 -119q0 -67 21 -120.5
t55.5 -91.5t80 -59t93.5 -24v-54q0 -11 7.5 -18.5t18.5 -7.5t18.5 7.5t7.5 18.5v54z" />
    <glyph glyph-name="sterling" unicode="&#xa3;" horiz-adv-x="608" 
d="M314 671q40 0 64 -11t37.5 -28t19 -36.5l10.5 -37.5q5 -20 19 -29.5t32 -9.5q15 0 31.5 6.5t30 17.5t22 26t8.5 32q0 33 -19 68.5t-54.5 65t-86 49t-114.5 19.5q-49 0 -97 -12t-85.5 -37t-61 -64.5t-23.5 -93.5q0 -16 5 -36.5t13 -41.5t18 -42t20 -39h-41
q-17 0 -29.5 -12.5t-12.5 -29.5t12.5 -29.5t29.5 -12.5h83q11 -29 14.5 -44t3.5 -26q0 -33 -16.5 -58t-37 -45.5t-37 -39.5t-16.5 -41q0 -8 4 -19t12 -21.5t19 -18t25 -7.5q11 0 23 3.5t24 8t24.5 8.5t26.5 4q34 0 58.5 -11t47.5 -24t49 -24t65 -11q73 0 113.5 23t40.5 65
q0 36 -20 55.5t-50 19.5q-12 0 -19.5 -3l-15.5 -6t-19 -6t-30 -3q-33 0 -54.5 7.5t-39.5 16.5t-35.5 16.5t-41.5 7.5q-5 0 -10 -0.5t-11 -1.5q6 8 18 22t24 32t21 38.5t9 41.5q0 5 -1.5 15.5t-6.5 25.5h79q17 0 29.5 12.5t12.5 29.5t-12.5 29.5t-29.5 12.5h-113l-24 44.5
t-19 37.5t-12.5 35.5t-4.5 40.5q0 32 26.5 54t75.5 22z" />
    <glyph glyph-name="currency" unicode="&#xa4;" horiz-adv-x="598" 
d="M124 399q-15 -23 -23.5 -51t-8.5 -59q0 -30 8.5 -58t23.5 -52l-90 -90q-14 -14 -14 -33q0 -18 14 -32t32 -14q19 0 33 14l90 90q23 -15 51 -23.5t59 -8.5t59 8.5t52 23.5l89 -90q14 -14 33 -14q18 0 32 14t14 32q0 19 -14 33l-90 90q15 24 23.5 52t8.5 58t-8.5 58
t-23.5 52l90 90q14 14 14 33q0 18 -14 32t-32 14q-19 0 -33 -14l-90 -90q-23 15 -51 23.5t-59 8.5q-30 0 -58 -8.5t-52 -23.5l-90 90q-14 14 -33 14q-18 0 -32 -14t-14 -32q0 -19 14 -33zM299 404q24 0 45 -9t36.5 -24.5t24.5 -36.5t9 -45t-9 -45t-24.5 -36.5t-36.5 -24.5
t-45 -9t-45 9t-36.5 24.5t-24.5 36.5t-9 45t9 45t24.5 36.5t36.5 24.5t45 9z" />
    <glyph glyph-name="yen" unicode="&#xa5;" horiz-adv-x="616" 
d="M596 682q5 8 6.5 15.5t1.5 15.5q0 18 -7 32t-18.5 23.5t-25.5 15t-28 5.5q-20 0 -38 -9.5t-27 -29.5l-152 -332l-152 332q-9 20 -27 29.5t-38 9.5q-21 0 -35.5 -7.5t-24.5 -19t-14.5 -24.5t-4.5 -25q0 -8 1.5 -15.5t6.5 -15.5l137 -241h-70q-17 0 -28.5 -11.5
t-11.5 -27.5q0 -17 11.5 -28.5t28.5 -11.5h115l30 -53h-93q-16 0 -27.5 -11t-11.5 -28t11.5 -28t27.5 -11h93v-156q0 -11 4.5 -24t14 -24.5t24 -19t33.5 -7.5q20 0 34.5 7t23.5 18t13.5 24t4.5 26v156h92q17 0 28.5 11t11.5 28t-11.5 28t-28.5 11h-92l30 53h115
q17 0 28 11.5t11 28.5q0 16 -11 27.5t-28 11.5h-70z" />
    <glyph glyph-name="brokenbar" unicode="&#xa6;" horiz-adv-x="237" 
d="M191 286q0 30 -21.5 51t-51.5 21q-29 0 -50.5 -21t-21.5 -51v-214q0 -29 21 -50.5t51 -21.5t51.5 21t21.5 51v214zM191 717q0 30 -21.5 51t-51.5 21q-29 0 -50.5 -21t-21.5 -51v-215q0 -29 21 -50.5t51 -21.5t51.5 21t21.5 51v215z" />
    <glyph glyph-name="section" unicode="&#xa7;" horiz-adv-x="606" 
d="M191 504l265 -153q18 -10 18 -33q0 -17 -11 -28t-28 -11q-10 0 -18 4l-265 154q-20 12 -20 34q0 17 11 28t28 11q6 0 10.5 -2t9.5 -4zM468 179q23 4 43.5 16.5t35.5 31.5t23.5 42t8.5 49q0 33 -16.5 67.5t-54.5 56.5l-235 136q-16 9 -26.5 24t-10.5 36q0 27 19 47t48 20
q34 0 59.5 -24.5t25.5 -60.5q0 -17 11.5 -28.5t28.5 -11.5t28.5 11.5t11.5 28.5q0 34 -13 64t-35.5 52.5t-52.5 35.5t-64 13t-64 -13t-52.5 -35.5t-35.5 -52.5t-13 -64v-9q-23 -4 -43.5 -17t-35.5 -31.5t-23.5 -42.5t-8.5 -49q0 -33 16 -67.5t56 -57.5l240 -137
q13 -8 22 -22.5t9 -34.5q0 -29 -19 -48t-48 -19q-34 0 -59.5 24.5t-25.5 60.5q0 17 -11.5 28.5t-28.5 11.5t-28.5 -11.5t-11.5 -28.5q0 -34 13 -64t35.5 -52.5t52.5 -35.5t64 -13t64 13t52.5 35.5t35.5 52.5t13 64v9z" />
    <glyph glyph-name="dieresis" unicode="&#xa8;" horiz-adv-x="304" 
d="M20 730q0 -25 17.5 -42.5t41.5 -17.5q25 0 42.5 17.5t17.5 42.5q0 24 -17.5 41.5t-42.5 17.5q-24 0 -41.5 -17.5t-17.5 -41.5zM165 730q0 -25 17.5 -42.5t41.5 -17.5q25 0 42.5 17.5t17.5 42.5q0 24 -17.5 41.5t-42.5 17.5q-24 0 -41.5 -17.5t-17.5 -41.5z" />
    <glyph glyph-name="copyright" unicode="&#xa9;" horiz-adv-x="829" 
d="M414 0q82 0 154 31t125.5 84.5t84.5 125.5t31 154q0 81 -31 153t-84.5 125.5t-125.5 84.5t-154 31q-81 0 -153 -31t-125.5 -84.5t-84.5 -125.5t-31 -153q0 -82 31 -154t84.5 -125.5t125.5 -84.5t153 -31zM86 395q0 68 26 128t70.5 104.5t104 70.5t127.5 26t128 -26
t104.5 -70.5t70.5 -104.5t26 -128t-26 -128t-70.5 -104.5t-104.5 -70.5t-128 -26t-127.5 26t-104 70.5t-70.5 104.5t-26 128zM411 639q-54 0 -94.5 -20.5t-67.5 -54t-40.5 -77.5t-13.5 -92t13.5 -92t40.5 -78t67.5 -54.5t94.5 -20.5q45 0 78.5 14t56 34t34 40.5t11.5 34.5
q0 20 -16 33t-33 13q-8 0 -15.5 -4t-11.5 -13l-11.5 -22.5t-18.5 -24t-30 -19t-44 -7.5q-30 0 -53 14.5t-39 38t-24 53.5t-8 60t8 60t24 53.5t39 38t53 14.5q26 0 44 -8t30 -19t18.5 -24l11.5 -23q4 -9 11.5 -13t15.5 -4q17 0 33 13t16 33q0 15 -12 36t-34.5 40.5t-56.5 33
t-77 13.5z" />
    <glyph glyph-name="ordfeminine" unicode="&#xaa;" horiz-adv-x="362" 
d="M79 517q23 0 31.5 10t14.5 22.5t15.5 22.5t35.5 10q27 0 45.5 -8.5t18.5 -31.5q0 -17 -16.5 -24.5t-40.5 -12.5t-53 -10t-53 -16.5t-40.5 -32.5t-16.5 -57q0 -25 10.5 -43.5t27 -30.5t37 -17.5t41.5 -5.5q32 0 57 8t47 29q2 -16 13.5 -26.5t28.5 -10.5t29 12.5t12 29.5
v214q0 48 -39.5 69.5t-101.5 21.5q-66 0 -102.5 -24.5t-36.5 -66.5q0 -16 10.5 -23.5t25.5 -7.5zM240 461v-59q0 -12 -7 -21.5t-18 -15.5t-25 -9.5t-27 -3.5q-20 0 -38.5 10t-18.5 27q0 20 8.5 32t34.5 16t49 11zM21 213h301v40h-301v-40z" />
    <glyph glyph-name="guillemotleft" unicode="&#xab;" horiz-adv-x="286" 
d="M30 434q-18 -18 -18 -39q0 -22 18 -40l145 -144q16 -16 38 -16q13 0 23 5.5t16.5 13.5t10 17t3.5 17q0 22 -16 38l-109 109l109 109q16 16 16 37q0 23 -16 38t-38 15t-37 -15zM267 434q-18 -18 -18 -39q0 -22 18 -40l145 -144q16 -16 38 -16q13 0 23 5.5t16.5 13.5t10 17
t3.5 17q0 22 -16 38l-109 109l109 109q16 16 16 37q0 23 -16 38t-38 15t-37 -15z" />
    <glyph glyph-name="logicalnot" unicode="&#xac;" horiz-adv-x="461" 
d="M441 395q0 22 -15 37t-37 15h-316q-22 0 -37.5 -15t-15.5 -37t15.5 -37.5t37.5 -15.5h263v-105q0 -22 15.5 -37.5t37.5 -15.5t37 15.5t15 37.5v158z" />
    <glyph glyph-name="registered" unicode="&#xae;" horiz-adv-x="606" 
d="M303 224q58 0 110 22.5t90 60.5t60.5 89.5t22.5 110.5q0 58 -22.5 109.5t-60.5 90t-90 60.5t-110 22q-59 0 -110.5 -22t-89.5 -60.5t-60.5 -90t-22.5 -109.5q0 -59 22.5 -110.5t60.5 -89.5t89.5 -60.5t110.5 -22.5zM66 507q0 49 18.5 92t51 75t75.5 50.5t92 18.5
t92 -18.5t75 -50.5t50.5 -75t18.5 -92t-18.5 -92t-50.5 -75.5t-75 -51t-92 -18.5t-92 18.5t-75.5 51t-51 75.5t-18.5 92zM327 617q18 0 31 -13t13 -31t-13 -31t-31 -13h-79v88h79zM432 587q0 35 -24.5 58.5t-58.5 23.5h-130q-14 0 -23 -8.5t-9 -22.5v-254q0 -13 9 -21.5
t22 -8.5t21.5 8.5t8.5 21.5v98h58q31 0 42 -11t12 -19l9 -74q2 -11 10 -17.5t19 -6.5t22 7.5t9 20.5l-9 83q-2 16 -14.5 26.5t-26.5 12.5q-5 0 -5 3t4 4q26 8 40 28.5t14 47.5z" />
    <glyph glyph-name="macron" unicode="&#xaf;" horiz-adv-x="436" 
d="M364 684q22 0 37 15.5t15 37.5t-15 37t-37 15h-291q-22 0 -37.5 -15t-15.5 -37t15.5 -37.5t37.5 -15.5h291z" />
    <glyph glyph-name="degree" unicode="&#xb0;" horiz-adv-x="356" 
d="M178 789q-33 0 -61.5 -12.5t-50 -34t-34 -50t-12.5 -61.5t12.5 -61.5t34 -50t50 -34t61.5 -12.5t61.5 12.5t50 34t34 50t12.5 61.5t-12.5 61.5t-34 50t-50 34t-61.5 12.5zM178 724q19 0 36 -7t29.5 -19.5t19.5 -29.5t7 -36t-7 -36t-19.5 -29.5t-29.5 -19.5t-36 -7t-36 7
t-29.5 19.5t-19.5 29.5t-7 36t7 36t19.5 29.5t29.5 19.5t36 7z" />
    <glyph glyph-name="plusminus" unicode="&#xb1;" horiz-adv-x="461" 
d="M283 421h106q22 0 37 15.5t15 37.5t-15 37t-37 15h-106v106q0 22 -15 37t-37 15t-37.5 -15t-15.5 -37v-106h-105q-22 0 -37.5 -15t-15.5 -37t15.5 -37.5t37.5 -15.5h105v-105q0 -22 15.5 -37.5t37.5 -15.5t37 15.5t15 37.5v105zM389 105q22 0 37 15.5t15 37.5t-15 37
t-37 15h-316q-22 0 -37.5 -15t-15.5 -37t15.5 -37.5t37.5 -15.5h316z" />
    <glyph glyph-name="twosuperior" unicode="&#xb2;" horiz-adv-x="384" 
d="M28 681q0 -29 15 -41.5t33 -12.5q16 0 28.5 9t12.5 25q0 37 19.5 50t45.5 13q33 0 55.5 -18t22.5 -59q0 -26 -18 -49.5t-44.5 -45.5t-57.5 -44t-57.5 -45t-44.5 -48.5t-18 -53.5q0 -14 11.5 -27t28.5 -13h265q16 0 27.5 11.5t11.5 28.5q0 16 -11.5 27.5t-27.5 11.5h-163
q-19 0 -19 8q0 4 4.5 9t11.5 11t14 11t12 9q16 12 44.5 29.5t56.5 41.5t48.5 55.5t20.5 70.5q0 45 -14.5 75.5t-38.5 49t-55 26t-65 7.5q-29 0 -56.5 -7.5t-49 -22.5t-35 -38t-13.5 -54z" />
    <glyph glyph-name="threesuperior" unicode="&#xb3;" horiz-adv-x="398" 
d="M196 718q35 0 56 -15.5t21 -44.5q0 -19 -9.5 -31t-23.5 -19.5t-29.5 -10.5t-26.5 -3q-12 0 -18 -9t-6 -20t6.5 -21.5t17.5 -10.5q15 0 32.5 -3t32 -11.5t24 -23.5t9.5 -40q0 -17 -7.5 -30t-20.5 -21.5t-29 -13t-32 -4.5q-23 0 -39.5 7.5t-28 18.5t-18.5 22.5t-10 20.5
q-4 12 -13 17.5t-20 5.5q-16 0 -30 -12t-14 -32q0 -12 8.5 -33.5t29 -42t53.5 -35.5t82 -15q34 0 67 9t59 27t42.5 44t16.5 60q0 53 -27.5 80t-68.5 39q42 11 62 38.5t20 58.5q0 27 -12 51t-34 42t-53 29t-69 11q-44 0 -74 -15t-48 -35.5t-26 -41t-8 -31.5q0 -23 13.5 -34.5
t29.5 -11.5q12 0 21.5 6.5t12.5 21.5q5 22 23.5 42t55.5 20z" />
    <glyph glyph-name="acute" unicode="&#xb4;" horiz-adv-x="222" 
d="M83 616l99 63q11 7 15.5 17.5t4.5 22.5q0 18 -6.5 31t-17 21.5t-22.5 13t-23 4.5q-12 0 -22.5 -5t-17.5 -16l-64 -98q-9 -15 -9 -30q0 -21 12.5 -27.5t21.5 -6.5q14 0 29 10z" />
    <glyph glyph-name="mu" unicode="&#xb5;" horiz-adv-x="598" 
d="M59 177q0 -85 -6.5 -153t-28.5 -124q-4 -9 -4 -19q0 -20 16 -20q18 0 35.5 12t34 33t31.5 49.5t27 61.5q39 -17 82 -17q34 0 61 7.5t48 18t36 23t24 23.5v-72q0 -29 21 -50.5t51 -21.5t51 21.5t21 50.5v507q0 29 -21 50.5t-51 21.5t-51 -21.5t-21 -50.5v-282
q0 -22 -8.5 -41t-23 -33.5t-33.5 -22.5t-41 -8q-21 0 -40.5 8t-33.5 22.5t-22.5 33.5t-8.5 41v282q0 29 -21 50.5t-51 21.5t-51.5 -21.5t-21.5 -50.5v-330z" />
    <glyph glyph-name="paragraph" unicode="&#xb6;" horiz-adv-x="803" 
d="M678 789h-404q-53 0 -99 -20t-80.5 -54t-54.5 -80.5t-20 -98.5q0 -53 20 -99t54.5 -80.5t80.5 -54.5t99 -20h100v-206q0 -32 22.5 -54t54.5 -22t54 22t22 54v582h77v-582q0 -32 22.5 -54t54.5 -22t54 22t22 54v635q0 9 -3 22.5t-12 26t-24.5 21t-39.5 8.5z" />
    <glyph glyph-name="periodcentered" unicode="&#xb7;" horiz-adv-x="193" 
d="M20 394q0 -32 22 -54t54 -22t54.5 22t22.5 54t-22.5 54.5t-54.5 22.5t-54 -22.5t-22 -54.5z" />
    <glyph glyph-name="periodcentered" unicode="&#x2219;" horiz-adv-x="193" 
d="M20 394q0 -32 22 -54t54 -22t54.5 22t22.5 54t-22.5 54.5t-54.5 22.5t-54 -22.5t-22 -54.5z" />
    <glyph glyph-name="onesuperior" unicode="&#xb9;" horiz-adv-x="241" 
d="M92 734q-8 -9 -20 -15l-23.5 -12t-20 -13.5t-8.5 -20.5q0 -16 12 -30t30 -14q13 0 21.5 2t14.5 2t9 -4t3 -15v-253q0 -19 13.5 -32t32.5 -13t32.5 13t13.5 32v382q0 23 -15.5 34.5t-30.5 11.5q-12 0 -20 -5t-14.5 -12.5t-13.5 -17.5t-16 -20z" />
    <glyph glyph-name="ordmasculine" unicode="&#xba;" horiz-adv-x="387" 
d="M20 213h347v40h-347v-40zM194 284q36 0 68 13t55 36.5t36.5 56t13.5 72.5t-13.5 72.5t-36.5 55.5t-55 36t-68 13t-68 -13t-55.5 -36t-37 -55.5t-13.5 -72.5t13.5 -72.5t37 -56t55.5 -36.5t68 -13zM288 462q0 -23 -6.5 -44t-18.5 -36.5t-29.5 -25t-39.5 -9.5
q-23 0 -40.5 9.5t-29.5 25t-18.5 36.5t-6.5 44t6.5 43.5t18.5 36.5t29.5 25t40.5 9q22 0 39.5 -9t29.5 -25t18.5 -36.5t6.5 -43.5z" />
    <glyph glyph-name="guillemotright" unicode="&#xbb;" horiz-adv-x="286" 
d="M111 579q-15 15 -37 15q-28 0 -41 -18t-13 -34q0 -22 16 -38l109 -109l-109 -109q-16 -16 -16 -38q0 -13 5.5 -23t13.5 -16.5t17 -10t17 -3.5q22 0 38 16l145 144q18 18 18 40q0 21 -18 39zM348 579q-15 15 -37 15q-28 0 -41 -18t-13 -34q0 -22 16 -38l109 -109
l-109 -109q-16 -16 -16 -38q0 -13 5.5 -23t13.5 -16.5t17 -10t17 -3.5q22 0 38 16l145 144q18 18 18 40q0 21 -18 39z" />
    <glyph glyph-name="onequarter" unicode="&#xbc;" horiz-adv-x="1012" 
d="M110 720q-10 -11 -25 -18t-29.5 -14.5t-25 -18t-10.5 -26.5q0 -19 15 -36.5t37 -17.5q17 0 27.5 2.5t17.5 2.5q8 0 12 -5t4 -19v-316q0 -23 16.5 -40t40.5 -17t41 17t17 40v478q0 28 -19 42.5t-39 14.5q-14 0 -24 -6t-19 -15.5t-17.5 -22t-19.5 -25.5zM656 727q5 12 5 22
q0 17 -6.5 27.5t-15.5 16t-18 7.5t-13 2q-15 0 -28 -8t-20 -22l-327 -698q-5 -12 -5 -21q0 -22 15 -38t38 -16q15 0 28 8t20 22zM506 225q0 -36 26 -62t69 -26h186v-80q0 -23 16.5 -40t40.5 -17t41 17t17 40v80h40q20 0 35 14t15 35q0 20 -15 34.5t-35 14.5h-40v271
q0 37 -23.5 61.5t-57.5 24.5q-23 0 -40.5 -13.5t-34.5 -33.5l-210 -248q-30 -33 -30 -72zM787 451v-216h-181z" />
    <glyph glyph-name="onehalf" unicode="&#xbd;" horiz-adv-x="1059" 
d="M110 720q-10 -11 -25 -18t-29.5 -14.5t-25 -18t-10.5 -26.5q0 -19 15 -36.5t37 -17.5q17 0 27.5 2.5t17.5 2.5q8 0 12 -5t4 -19v-316q0 -23 16.5 -40t40.5 -17t41 17t17 40v478q0 28 -19 42.5t-39 14.5q-14 0 -24 -6t-19 -15.5t-17.5 -22t-19.5 -25.5zM656 727q5 12 5 22
q0 17 -6.5 27.5t-15.5 16t-18 7.5t-13 2q-15 0 -28 -8t-20 -22l-327 -698q-5 -12 -5 -21q0 -22 15 -38t38 -16q15 0 28 8t20 22zM613 450q0 -36 18.5 -51.5t40.5 -15.5q20 0 35.5 11.5t15.5 31.5q0 45 24 61.5t58 16.5q41 0 69 -22.5t28 -73.5q0 -33 -22 -62.5t-55.5 -57
t-72.5 -55t-72.5 -56.5t-55.5 -60.5t-22 -66.5q0 -18 14.5 -34t34.5 -16h332q20 0 34.5 14.5t14.5 35.5q0 20 -14.5 34t-34.5 14h-203q-14 0 -19 2.5t-5 7.5t6 12t14 14t17 13t15 11q20 15 55.5 37t70.5 52t61 69t26 88q0 57 -18 95.5t-48 61t-69 32t-81 9.5
q-36 0 -70.5 -9.5t-61.5 -28t-43.5 -47t-16.5 -67.5z" />
    <glyph glyph-name="threequarters" unicode="&#xbe;" horiz-adv-x="1192" 
d="M836 727q5 12 5 22q0 17 -6.5 27.5t-15.5 16t-18 7.5t-13 2q-15 0 -28 -8t-20 -22l-327 -698q-5 -12 -5 -21q0 -22 15 -38t38 -16q15 0 28 8t20 22zM686 225q0 -36 26 -62t69 -26h186v-80q0 -23 16.5 -40t40.5 -17t41 17t17 40v80h40q20 0 35 14t15 35q0 20 -15 34.5
t-35 14.5h-40v271q0 37 -23.5 61.5t-57.5 24.5q-23 0 -40.5 -13.5t-34.5 -33.5l-210 -248q-30 -33 -30 -72zM967 451v-216h-181zM240 704q45 0 71 -20t26 -55q0 -24 -12.5 -39.5t-30 -24.5t-36.5 -12.5t-33 -3.5q-15 0 -22 -11t-7 -25t7.5 -27t21.5 -13q19 0 41 -3.5t40 -14
t30 -30t12 -50.5q0 -21 -10 -37t-25.5 -27t-35.5 -16.5t-41 -5.5q-28 0 -49 9.5t-35 23t-22.5 28t-12.5 25.5q-5 15 -16 21.5t-25 6.5q-20 0 -38 -14t-18 -40q0 -15 11 -42t36 -52.5t66.5 -44.5t102.5 -19q43 0 84.5 11.5t74.5 34t53 55t20 75.5q0 37 -10.5 62.5t-27.5 42
t-37.5 26.5t-41.5 17q27 9 45.5 22.5t30.5 30t17.5 34t5.5 34.5q0 33 -15 63.5t-42 53.5t-66 36.5t-87 13.5q-55 0 -92.5 -19t-60 -44.5t-32.5 -51.5t-10 -39q0 -29 17 -43.5t37 -14.5q14 0 26 8t17 28q3 13 10 27t19 25t29 18t40 7z" />
    <glyph glyph-name="questiondown" unicode="&#xbf;" horiz-adv-x="592" 
d="M394 713q0 32 -22.5 54t-54.5 22t-54 -22t-22 -54t22 -54.5t54 -22.5t54.5 22.5t22.5 54.5zM302 118q-28 0 -51.5 9t-41 24.5t-27.5 36t-10 43.5q0 28 15.5 50.5t38.5 42t50 38t50 39t38.5 44.5t15.5 54q0 21 -7.5 35t-19 22t-23.5 11.5t-21 3.5q-23 0 -40.5 -13.5
t-27.5 -36.5q-9 -22 -29 -41t-44.5 -38l-50.5 -40t-47.5 -46t-35.5 -55.5t-14 -69.5q0 -61 24.5 -107t65 -76.5t92.5 -46t107 -15.5q61 0 110 20.5t83 50.5t52 65t18 64q0 16 -7 29t-18.5 23t-26 15.5t-28.5 5.5q-16 0 -29.5 -8t-21.5 -26q-8 -19 -18 -38t-25.5 -34.5
t-38.5 -25t-57 -9.5z" />
    <glyph glyph-name="Agrave" unicode="&#xc0;" 
d="M305 880q14 -8 28.5 -9.5t25.5 9.5t10 26t-10 28l-63 99q-7 11 -18.5 15.5t-24 4t-25 -5.5t-21.5 -14t-14.5 -21.5t-6 -25.5t4.5 -24t16 -18zM334 636l81 -276h-163zM507 52q8 -24 28.5 -38t44.5 -14q20 0 34 7.5t23 18.5t13.5 25t4.5 26q0 13 -5 28l-207 598
q-7 20 -17 38.5t-23.5 32t-30.5 21.5t-38 8q-22 0 -39 -8t-30 -21.5t-23 -32t-17 -38.5l-208 -598q-5 -15 -5 -28q0 -30 20.5 -53.5t55.5 -23.5q24 0 44.5 14t28.5 38l57 191h232z" />
    <glyph glyph-name="Aacute" unicode="&#xc1;" 
d="M334 636l81 -276h-163zM507 52q8 -24 28.5 -38t44.5 -14q20 0 34 7.5t23 18.5t13.5 25t4.5 26q0 13 -5 28l-207 598q-7 20 -17 38.5t-23.5 32t-30.5 21.5t-38 8q-22 0 -39 -8t-30 -21.5t-23 -32t-17 -38.5l-208 -598q-5 -15 -5 -28q0 -30 20.5 -53.5t55.5 -23.5
q24 0 44.5 14t28.5 38l57 191h232zM366 881l99 63q11 7 15.5 17.5t4.5 22.5q0 18 -6.5 31t-17 21.5t-22.5 13t-23 4.5q-12 0 -22.5 -5t-17.5 -16l-64 -98q-9 -15 -9 -30q0 -21 12.5 -27.5t21.5 -6.5q14 0 29 10z" />
    <glyph glyph-name="Acircumflex" unicode="&#xc2;" 
d="M334 636l81 -276h-163zM507 52q8 -24 28.5 -38t44.5 -14q20 0 34 7.5t23 18.5t13.5 25t4.5 26q0 13 -5 28l-207 598q-7 20 -17 38.5t-23.5 32t-30.5 21.5t-38 8q-22 0 -39 -8t-30 -21.5t-23 -32t-17 -38.5l-208 -598q-5 -15 -5 -28q0 -30 20.5 -53.5t55.5 -23.5
q24 0 44.5 14t28.5 38l57 191h232zM369 1015q-14 14 -30 14t-30 -14l-79 -79q-5 -5 -8 -13t-3 -16q0 -12 9 -25.5t30 -13.5q17 0 28 11l53 53l53 -53q11 -11 28 -11q21 0 30 13.5t9 25.5q0 8 -3 16t-8 13z" />
    <glyph glyph-name="Atilde" unicode="&#xc3;" 
d="M236 869q15 0 23.5 7.5t15 15.5t14.5 13t21 0l79 -31q18 -7 37 -4.5t35.5 12t27 25.5t10.5 35q0 22 -15 37.5t-37 15.5q-15 0 -23.5 -7.5t-15.5 -15.5t-15 -13t-21 0l-79 32q-18 7 -37 4t-35.5 -12.5t-27 -25.5t-10.5 -35q0 -21 16 -37t37 -16zM334 636l81 -276h-163z
M507 52q8 -24 28.5 -38t44.5 -14q20 0 34 7.5t23 18.5t13.5 25t4.5 26q0 13 -5 28l-207 598q-7 20 -17 38.5t-23.5 32t-30.5 21.5t-38 8q-22 0 -39 -8t-30 -21.5t-23 -32t-17 -38.5l-208 -598q-5 -15 -5 -28q0 -30 20.5 -53.5t55.5 -23.5q24 0 44.5 14t28.5 38l57 191h232z
" />
    <glyph glyph-name="Adieresis" unicode="&#xc4;" 
d="M207 928q0 -25 17.5 -42.5t41.5 -17.5q25 0 42.5 17.5t17.5 42.5q0 24 -17.5 41.5t-42.5 17.5q-24 0 -41.5 -17.5t-17.5 -41.5zM352 928q0 -25 17.5 -42.5t41.5 -17.5q25 0 42.5 17.5t17.5 42.5q0 24 -17.5 41.5t-42.5 17.5q-24 0 -41.5 -17.5t-17.5 -41.5zM334 636
l81 -276h-163zM507 52q8 -24 28.5 -38t44.5 -14q20 0 34 7.5t23 18.5t13.5 25t4.5 26q0 13 -5 28l-207 598q-7 20 -17 38.5t-23.5 32t-30.5 21.5t-38 8q-22 0 -39 -8t-30 -21.5t-23 -32t-17 -38.5l-208 -598q-5 -15 -5 -28q0 -30 20.5 -53.5t55.5 -23.5q24 0 44.5 14
t28.5 38l57 191h232z" />
    <glyph glyph-name="Aring" unicode="&#xc5;" 
d="M334 636l81 -276h-163zM507 52q8 -24 28.5 -38t44.5 -14q20 0 34 7.5t23 18.5t13.5 25t4.5 26q0 13 -5 28l-207 598q-7 20 -17 38.5t-23.5 32t-30.5 21.5t-38 8q-22 0 -39 -8t-30 -21.5t-23 -32t-17 -38.5l-208 -598q-5 -15 -5 -28q0 -30 20.5 -53.5t55.5 -23.5
q24 0 44.5 14t28.5 38l57 191h232zM339 1026q-33 0 -56 -23t-23 -56t23 -56t56 -23t56 23t23 56t-23 56t-56 23zM339 993q19 0 32.5 -13.5t13.5 -32.5t-13.5 -32.5t-32.5 -13.5t-32.5 13.5t-13.5 32.5t13.5 32.5t32.5 13.5z" />
    <glyph glyph-name="AE" unicode="&#xc6;" horiz-adv-x="1077" 
d="M488 487v-132h-99l51 68zM488 79q0 -15 5 -29t14.5 -25t24.5 -18t35 -7h424q27 0 46.5 19t19.5 47q0 27 -19.5 46t-46.5 19h-350v224h295q27 0 46.5 19.5t19.5 46.5t-19.5 46.5t-46.5 19.5h-295v171h350q27 0 46.5 19t19.5 47q0 27 -19.5 46t-46.5 19h-424q-18 0 -32 -4
t-25 -19l-483 -648q-15 -21 -15 -46q0 -18 6.5 -31.5t17 -22.5t23.5 -13.5t25 -4.5q17 0 32.5 7t26.5 21l163 215h182v-164z" />
    <glyph glyph-name="Ccedilla" unicode="&#xc7;" horiz-adv-x="707" 
d="M379 803q-90 0 -157 -34t-112 -90.5t-67.5 -130.5t-22.5 -153q0 -76 20.5 -146.5t61 -126t100 -91.5t137.5 -42v-55q0 -20 -12.5 -29.5t-26.5 -9.5h-59q-17 0 -28.5 -11.5t-11.5 -28.5t11.5 -28t28.5 -11h59q61 0 89.5 33.5t28.5 84.5v55q55 2 103 25t83 54.5t55.5 66
t20.5 58.5q0 16 -7.5 30t-19.5 24t-26.5 16t-28.5 6q-15 0 -27 -7t-19 -21q-8 -17 -19.5 -38t-31 -40t-49 -32t-73.5 -13q-50 0 -88.5 24.5t-65 63.5t-40 88.5t-13.5 100.5q0 50 13.5 99.5t40 88.5t65 63.5t88.5 24.5q44 0 73.5 -13t49 -31.5t31 -40l19.5 -37.5
q7 -14 19 -21t26 -7t28.5 6t26.5 16t19.5 24t7.5 30q0 24 -19 59t-56.5 67.5t-93.5 56t-131 23.5z" />
    <glyph glyph-name="Egrave" unicode="&#xc8;" horiz-adv-x="634" 
d="M493 355q28 0 47 19.5t19 46.5t-19 46.5t-47 19.5h-294v171h350q27 0 46 19t19 47q0 27 -19 46t-46 19h-424q-24 0 -39.5 -8.5t-24.5 -21t-12 -26t-3 -22.5v-632q0 -21 7 -36t18.5 -24.5t25.5 -14t28 -4.5h424q27 0 46 19t19 47q0 27 -19 46t-46 19h-350v224h294z
M299 880q15 -10 29 -10q9 0 21.5 6.5t12.5 27.5q0 15 -9 30l-64 98q-14 21 -40 21q-11 0 -23 -4.5t-22.5 -13t-17 -21.5t-6.5 -31q0 -12 4.5 -22.5t15.5 -17.5z" />
    <glyph glyph-name="Eacute" unicode="&#xc9;" horiz-adv-x="634" 
d="M493 355q28 0 47 19.5t19 46.5t-19 46.5t-47 19.5h-294v171h350q27 0 46 19t19 47q0 27 -19 46t-46 19h-424q-24 0 -39.5 -8.5t-24.5 -21t-12 -26t-3 -22.5v-632q0 -21 7 -36t18.5 -24.5t25.5 -14t28 -4.5h424q27 0 46 19t19 47q0 27 -19 46t-46 19h-350v224h294z
M344 880l99 63q11 7 15.5 17.5t4.5 22.5q0 18 -6.5 31t-17 21.5t-22.5 13t-23 4.5q-12 0 -22.5 -5t-17.5 -16l-64 -98q-9 -15 -9 -30q0 -21 12.5 -27.5t21.5 -6.5q14 0 29 10z" />
    <glyph glyph-name="Ecircumflex" unicode="&#xca;" horiz-adv-x="634" 
d="M493 355q28 0 47 19.5t19 46.5t-19 46.5t-47 19.5h-294v171h350q27 0 46 19t19 47q0 27 -19 46t-46 19h-424q-24 0 -39.5 -8.5t-24.5 -21t-12 -26t-3 -22.5v-632q0 -21 7 -36t18.5 -24.5t25.5 -14t28 -4.5h424q27 0 46 19t19 47q0 27 -19 46t-46 19h-350v224h294z
M344 1015q-14 14 -30 14t-30 -14l-79 -79q-5 -5 -8 -13t-3 -16q0 -12 9 -25.5t30 -13.5q17 0 28 11l53 53l53 -53q11 -11 28 -11q21 0 30 13.5t9 25.5q0 8 -3 16t-8 13z" />
    <glyph glyph-name="Edieresis" unicode="&#xcb;" horiz-adv-x="634" 
d="M193 928q0 -25 17.5 -42.5t42.5 -17.5q24 0 41.5 17.5t17.5 42.5q0 24 -17.5 41.5t-41.5 17.5q-25 0 -42.5 -17.5t-17.5 -41.5zM338 928q0 -25 17.5 -42.5t42.5 -17.5q24 0 41.5 17.5t17.5 42.5q0 24 -17.5 41.5t-41.5 17.5q-25 0 -42.5 -17.5t-17.5 -41.5zM493 355
q28 0 47 19.5t19 46.5t-19 46.5t-47 19.5h-294v171h350q27 0 46 19t19 47q0 27 -19 46t-46 19h-424q-24 0 -39.5 -8.5t-24.5 -21t-12 -26t-3 -22.5v-632q0 -21 7 -36t18.5 -24.5t25.5 -14t28 -4.5h424q27 0 46 19t19 47q0 27 -19 46t-46 19h-350v224h294z" />
    <glyph glyph-name="Igrave" unicode="&#xcc;" horiz-adv-x="269" 
d="M223 713q0 32 -22.5 54t-54.5 22t-54 -22t-22 -54v-637q0 -32 22 -54t54 -22t54.5 22t22.5 54v637zM117 880q15 -10 29 -10q9 0 21.5 6.5t12.5 27.5q0 15 -9 30l-64 98q-14 21 -40 21q-11 0 -23 -4.5t-22.5 -13t-17 -21.5t-6.5 -31q0 -12 4.5 -22.5t15.5 -17.5z" />
    <glyph glyph-name="Iacute" unicode="&#xcd;" horiz-adv-x="256" 
d="M199 713q0 32 -22.5 54t-54.5 22t-54 -22t-22 -54v-637q0 -32 22 -54t54 -22t54.5 22t22.5 54v637zM150 880l99 63q11 7 15.5 17.5t4.5 22.5q0 18 -6.5 31t-17 21.5t-22.5 13t-23 4.5q-12 0 -22.5 -5t-17.5 -16l-64 -98q-9 -15 -9 -30q0 -21 12.5 -27.5t21.5 -6.5
q14 0 29 10z" />
    <glyph glyph-name="Icircumflex" unicode="&#xce;" horiz-adv-x="250" 
d="M202 713q0 32 -22.5 54t-54.5 22t-54 -22t-22 -54v-637q0 -32 22 -54t54 -22t54.5 22t22.5 54v637zM155 1015q-14 14 -30 14t-30 -14l-79 -79q-5 -5 -8 -13t-3 -16q0 -12 9 -25.5t30 -13.5q17 0 28 11l53 53l53 -53q11 -11 28 -11q21 0 30 13.5t9 25.5q0 8 -3 16t-8 13z
" />
    <glyph glyph-name="Idieresis" unicode="&#xcf;" horiz-adv-x="216" 
d="M-24 928q0 -25 17.5 -42.5t42.5 -17.5q24 0 41.5 17.5t17.5 42.5q0 24 -17.5 41.5t-41.5 17.5q-25 0 -42.5 -17.5t-17.5 -41.5zM121 928q0 -25 17.5 -42.5t42.5 -17.5q24 0 41.5 17.5t17.5 42.5q0 24 -17.5 41.5t-41.5 17.5q-25 0 -42.5 -17.5t-17.5 -41.5zM182 713
q0 32 -22.5 54t-54.5 22t-54 -22t-22 -54v-637q0 -32 22 -54t54 -22t54.5 22t22.5 54v637z" />
    <glyph glyph-name="Eth" unicode="&#xd0;" horiz-adv-x="827" 
d="M307 447v211h141q59 0 98.5 -23t63.5 -60t34 -84t10 -96t-10 -96.5t-34 -84.5t-63.5 -59.5t-98.5 -22.5h-141v210h82q22 0 37 15.5t15 37.5t-15 37t-37 15h-82zM154 342v-263q0 -21 7 -36t18.5 -24.5t25.5 -14t28 -4.5h272q73 0 129 34.5t94.5 90.5t58.5 126.5t20 143.5
q0 72 -20 143t-58.5 126.5t-95 90t-128.5 34.5h-272q-24 0 -39.5 -8.5t-24.5 -21t-12 -26t-3 -22.5v-264h-81q-22 0 -37.5 -15t-15.5 -37t15.5 -37.5t37.5 -15.5h81z" />
    <glyph glyph-name="Ntilde" unicode="&#xd1;" horiz-adv-x="724" 
d="M487 67q19 -31 44.5 -49t60.5 -18q18 0 33.5 6.5t27 18.5t18.5 27.5t7 33.5v631q0 30 -21.5 51t-51.5 21q-29 0 -50.5 -21t-21.5 -51v-491l-296 496q-19 32 -44.5 49.5t-60.5 17.5q-36 0 -61 -25t-25 -60v-632q0 -29 21.5 -50.5t50.5 -21.5q30 0 51.5 21.5t21.5 50.5v491
zM248 869q13 0 21 6t14.5 12.5l12.5 12.5t15 6q3 0 11 -2l79 -31q7 -3 13.5 -3.5t13.5 -0.5q15 0 30 5.5t27 15t19 23t7 28.5q0 21 -15.5 36.5t-36.5 15.5q-13 0 -21 -6t-14.5 -12.5l-12.5 -12.5t-15 -6q-4 0 -12 2l-79 31q-5 2 -12.5 3t-13.5 1q-16 0 -31 -5.5t-27 -15
t-19 -22.5t-7 -29q0 -21 16 -36.5t37 -15.5z" />
    <glyph glyph-name="Ograve" unicode="&#xd2;" horiz-adv-x="756" 
d="M378 -14q88 0 155 34t112 91t68 130.5t23 153.5q0 79 -23 152.5t-68 130.5t-112 91t-155 34q-89 0 -156 -34t-112 -91t-67.5 -130.5t-22.5 -152.5q0 -80 22.5 -153.5t67.5 -130.5t112 -91t156 -34zM591 395q0 -51 -12 -100.5t-38 -89t-66 -63.5t-97 -24t-97.5 24
t-66.5 63.5t-38 89t-12 100.5t12 100.5t38 88.5t66.5 63t97.5 24t97 -24t66 -63t38 -88.5t12 -100.5zM349 880q15 -10 29 -10q9 0 21.5 6.5t12.5 27.5q0 15 -9 30l-64 98q-14 21 -40 21q-11 0 -23 -4.5t-22.5 -13t-17 -21.5t-6.5 -31q0 -12 4.5 -22.5t15.5 -17.5z" />
    <glyph glyph-name="Oacute" unicode="&#xd3;" horiz-adv-x="756" 
d="M378 -14q88 0 155 34t112 91t68 130.5t23 153.5q0 79 -23 152.5t-68 130.5t-112 91t-155 34q-89 0 -156 -34t-112 -91t-67.5 -130.5t-22.5 -152.5q0 -80 22.5 -153.5t67.5 -130.5t112 -91t156 -34zM591 395q0 -51 -12 -100.5t-38 -89t-66 -63.5t-97 -24t-97.5 24
t-66.5 63.5t-38 89t-12 100.5t12 100.5t38 88.5t66.5 63t97.5 24t97 -24t66 -63t38 -88.5t12 -100.5zM408 880l99 63q11 7 15.5 17.5t4.5 22.5q0 18 -6.5 31t-17 21.5t-22.5 13t-23 4.5q-12 0 -22.5 -5t-17.5 -16l-64 -98q-9 -15 -9 -30q0 -21 12.5 -27.5t21.5 -6.5
q14 0 29 10z" />
    <glyph glyph-name="Ocircumflex" unicode="&#xd4;" horiz-adv-x="756" 
d="M378 -14q88 0 155 34t112 91t68 130.5t23 153.5q0 79 -23 152.5t-68 130.5t-112 91t-155 34q-89 0 -156 -34t-112 -91t-67.5 -130.5t-22.5 -152.5q0 -80 22.5 -153.5t67.5 -130.5t112 -91t156 -34zM591 395q0 -51 -12 -100.5t-38 -89t-66 -63.5t-97 -24t-97.5 24
t-66.5 63.5t-38 89t-12 100.5t12 100.5t38 88.5t66.5 63t97.5 24t97 -24t66 -63t38 -88.5t12 -100.5zM408 1015q-14 14 -30 14t-30 -14l-79 -79q-5 -5 -8 -13t-3 -16q0 -12 9 -25.5t30 -13.5q17 0 28 11l53 53l53 -53q11 -11 28 -11q21 0 30 13.5t9 25.5q0 8 -3 16t-8 13z
" />
    <glyph glyph-name="Otilde" unicode="&#xd5;" horiz-adv-x="756" 
d="M278 869q15 0 23.5 7.5t15 15.5t14.5 13t21 0l79 -31q18 -7 37 -4.5t35.5 12t27 25.5t10.5 35q0 22 -15.5 37.5t-37.5 15.5q-15 0 -23.5 -7.5t-15.5 -15.5t-14.5 -13t-20.5 0l-79 32q-18 7 -37.5 4t-36 -12.5t-27 -25.5t-10.5 -35q0 -21 16 -37t38 -16zM378 -14
q88 0 155 34t112 91t68 130.5t23 153.5q0 79 -23 152.5t-68 130.5t-112 91t-155 34q-89 0 -156 -34t-112 -91t-67.5 -130.5t-22.5 -152.5q0 -80 22.5 -153.5t67.5 -130.5t112 -91t156 -34zM591 395q0 -51 -12 -100.5t-38 -89t-66 -63.5t-97 -24t-97.5 24t-66.5 63.5t-38 89
t-12 100.5t12 100.5t38 88.5t66.5 63t97.5 24t97 -24t66 -63t38 -88.5t12 -100.5z" />
    <glyph glyph-name="Odieresis" unicode="&#xd6;" horiz-adv-x="756" 
d="M246 928q0 -25 17.5 -42.5t41.5 -17.5q25 0 42.5 17.5t17.5 42.5q0 24 -17.5 41.5t-42.5 17.5q-24 0 -41.5 -17.5t-17.5 -41.5zM391 928q0 -25 17.5 -42.5t41.5 -17.5q25 0 42.5 17.5t17.5 42.5q0 24 -17.5 41.5t-42.5 17.5q-24 0 -41.5 -17.5t-17.5 -41.5zM378 -14
q88 0 155 34t112 91t68 130.5t23 153.5q0 79 -23 152.5t-68 130.5t-112 91t-155 34q-89 0 -156 -34t-112 -91t-67.5 -130.5t-22.5 -152.5q0 -80 22.5 -153.5t67.5 -130.5t112 -91t156 -34zM591 395q0 -51 -12 -100.5t-38 -89t-66 -63.5t-97 -24t-97.5 24t-66.5 63.5t-38 89
t-12 100.5t12 100.5t38 88.5t66.5 63t97.5 24t97 -24t66 -63t38 -88.5t12 -100.5z" />
    <glyph glyph-name="multiply" unicode="&#xd7;" horiz-adv-x="368" 
d="M258 395l75 75q15 15 15 36t-15 37t-38 16q-21 0 -36 -15l-75 -75l-75 75q-15 15 -36 15q-15 0 -25 -5.5t-16.5 -14t-9 -17.5t-2.5 -16q0 -21 15 -36l75 -75l-75 -75q-15 -15 -15 -38q0 -15 5.5 -25t14 -15.5t17.5 -8t15 -2.5q23 0 38 15l74 74l74 -74q15 -15 38 -15
q27 0 39.5 17.5t12.5 33.5q0 23 -15 38z" />
    <glyph glyph-name="Oslash" unicode="&#xd8;" horiz-adv-x="763" 
d="M166 395q0 51 12 100.5t38 88.5t66.5 63t97.5 24q46 0 78.5 -15t65.5 -47l-325 -372q-14 28 -23.5 69t-9.5 89zM101 126l-74 -85q-7 -8 -7 -20q0 -17 11 -26t19 -9q10 0 19 7t17 15l59 68q56 -49 111.5 -69t123.5 -20q88 0 155 34t112 91t68 130.5t23 152.5
q0 81 -23.5 151t-55.5 116l79 91q5 5 5 15q0 19 -13 27t-20 8q-18 0 -32 -17l-63 -73q-28 24 -55 41.5t-55.5 28t-59 15.5t-65.5 5q-89 0 -156 -34t-112 -91t-67.5 -130.5t-22.5 -152.5q0 -82 22 -150.5t57 -118.5zM236 180l325 371q14 -29 23 -69t9 -87q0 -51 -12 -101
t-38 -89t-66 -63t-97 -24q-48 0 -80 15t-64 47z" />
    <glyph glyph-name="Ugrave" unicode="&#xd9;" horiz-adv-x="692" 
d="M493 237q0 -28 -12.5 -50t-33 -37.5t-47 -23.5t-54.5 -8t-54.5 8t-47 23.5t-33 37.5t-12.5 50v476q0 32 -22.5 54t-54.5 22t-54 -22t-22 -54v-476q0 -74 25.5 -122.5t67.5 -77t96 -39.5t111 -11t111 11t96 39.5t67.5 77t25.5 122.5v476q0 32 -22 54t-54 22t-54.5 -22
t-22.5 -54v-476zM319 880q15 -10 29 -10q9 0 21.5 6.5t12.5 27.5q0 15 -9 30l-64 98q-14 21 -40 21q-11 0 -23 -4.5t-22.5 -13t-17 -21.5t-6.5 -31q0 -12 4.5 -22.5t15.5 -17.5z" />
    <glyph glyph-name="Uacute" unicode="&#xda;" horiz-adv-x="692" 
d="M493 237q0 -28 -12.5 -50t-33 -37.5t-47 -23.5t-54.5 -8t-54.5 8t-47 23.5t-33 37.5t-12.5 50v476q0 32 -22.5 54t-54.5 22t-54 -22t-22 -54v-476q0 -74 25.5 -122.5t67.5 -77t96 -39.5t111 -11t111 11t96 39.5t67.5 77t25.5 122.5v476q0 32 -22 54t-54 22t-54.5 -22
t-22.5 -54v-476zM373 880l99 63q11 7 15.5 17.5t4.5 22.5q0 18 -6.5 31t-17 21.5t-22.5 13t-23 4.5q-12 0 -22.5 -5t-17.5 -16l-64 -98q-9 -15 -9 -30q0 -21 12.5 -27.5t21.5 -6.5q14 0 29 10z" />
    <glyph glyph-name="Ucircumflex" unicode="&#xdb;" horiz-adv-x="692" 
d="M493 237q0 -28 -12.5 -50t-33 -37.5t-47 -23.5t-54.5 -8t-54.5 8t-47 23.5t-33 37.5t-12.5 50v476q0 32 -22.5 54t-54.5 22t-54 -22t-22 -54v-476q0 -74 25.5 -122.5t67.5 -77t96 -39.5t111 -11t111 11t96 39.5t67.5 77t25.5 122.5v476q0 32 -22 54t-54 22t-54.5 -22
t-22.5 -54v-476zM376 1015q-14 14 -30 14t-30 -14l-79 -79q-5 -5 -8 -13t-3 -16q0 -12 9 -25.5t30 -13.5q17 0 28 11l53 53l53 -53q11 -11 28 -11q21 0 30 13.5t9 25.5q0 8 -3 16t-8 13z" />
    <glyph glyph-name="Udieresis" unicode="&#xdc;" horiz-adv-x="692" 
d="M214 928q0 -25 17.5 -42.5t42.5 -17.5q24 0 41.5 17.5t17.5 42.5q0 24 -17.5 41.5t-41.5 17.5q-25 0 -42.5 -17.5t-17.5 -41.5zM359 928q0 -25 17.5 -42.5t42.5 -17.5q24 0 41.5 17.5t17.5 42.5q0 24 -17.5 41.5t-41.5 17.5q-25 0 -42.5 -17.5t-17.5 -41.5zM493 237
q0 -28 -12.5 -50t-33 -37.5t-47 -23.5t-54.5 -8t-54.5 8t-47 23.5t-33 37.5t-12.5 50v476q0 32 -22.5 54t-54.5 22t-54 -22t-22 -54v-476q0 -74 25.5 -122.5t67.5 -77t96 -39.5t111 -11t111 11t96 39.5t67.5 77t25.5 122.5v476q0 32 -22 54t-54 22t-54.5 -22t-22.5 -54v-476
z" />
    <glyph glyph-name="Yacute" unicode="&#xdd;" horiz-adv-x="616" 
d="M232 309v-234q0 -11 5 -24t14.5 -24.5t23.5 -19t33 -7.5q20 0 34.5 7t24 18t14 24t4.5 26v234l211 373q5 8 6.5 15.5t1.5 15.5q0 22 -9 36.5t-21 23.5t-25.5 12.5t-22.5 3.5q-21 0 -39 -9.5t-27 -29.5l-152 -332l-152 332q-9 20 -27 29.5t-38 9.5q-24 0 -39.5 -8.5
t-24 -20.5t-12 -25t-3.5 -22q0 -8 1.5 -15.5t6.5 -15.5zM338 880l99 63q11 7 15.5 17.5t4.5 22.5q0 18 -6.5 31t-17 21.5t-22.5 13t-23 4.5q-12 0 -22.5 -5t-17.5 -16l-64 -98q-9 -15 -9 -30q0 -21 12.5 -27.5t21.5 -6.5q14 0 29 10z" />
    <glyph glyph-name="Thorn" unicode="&#xde;" horiz-adv-x="650" 
d="M199 648v65q0 32 -22.5 54t-54.5 22t-54 -22t-22 -54v-637q0 -32 22 -54t54 -22t54.5 22t22.5 54v65h177q52 0 98.5 20t81 54.5t54.5 80.5t20 99q0 52 -20 98.5t-54.5 80.5t-81 54t-98.5 20h-177zM363 517q25 0 47.5 -9.5t39.5 -26t26.5 -39t9.5 -47.5q0 -26 -9.5 -48
t-26.5 -39t-39.5 -26.5t-47.5 -9.5h-164v245h164z" />
    <glyph glyph-name="germandbls" unicode="&#xdf;" horiz-adv-x="837" 
d="M433 552q-45 -23 -70.5 -61.5t-25.5 -88.5q0 -49 25 -78t62 -47t81 -28.5t81 -21t62 -25.5t25 -42q0 -17 -8.5 -29.5t-22 -21t-30.5 -13t-34 -4.5q-52 0 -84 26t-49 68q-6 15 -20 22t-31 7q-25 0 -46.5 -14t-21.5 -37q0 -27 16.5 -58.5t48.5 -57.5t79 -43.5t108 -17.5
q48 0 90.5 13t74 38.5t50 63t18.5 87.5q0 47 -25.5 75.5t-63.5 46t-82 28l-82 20t-63.5 22.5t-25.5 37q0 29 28 43q38 19 64 40.5t41.5 43t22.5 42t7 37.5q0 28 -7.5 57.5t-26.5 53.5t-52 39t-84 15h-184q-51 0 -84 -15t-52 -42.5t-26.5 -66.5t-7.5 -86v-13h-42
q-19 0 -32.5 -13.5t-13.5 -32.5q0 -20 13.5 -33t32.5 -13h42v-402q0 -29 21.5 -50.5t51.5 -21.5q29 0 50.5 21.5t21.5 50.5v507q0 53 19 72.5t62 19.5h72q43 0 62 -15t19 -40q0 -19 -12.5 -34.5t-41.5 -29.5z" />
    <glyph glyph-name="agrave" unicode="&#xe0;" horiz-adv-x="564" 
d="M117 374q26 0 40 8t22.5 20t14.5 26.5t15.5 26.5t25.5 20t45 8q22 0 42 -4t35 -11.5t23.5 -19t8.5 -26.5q0 -32 -27.5 -46.5t-68.5 -22.5t-88.5 -16t-88.5 -26t-68.5 -53t-27.5 -97q0 -40 17 -70t44.5 -50.5t62 -30.5t68.5 -10q53 0 95 13t80 49q3 -27 22.5 -44.5
t46.5 -17.5q29 0 49 20t20 49v357q0 40 -17.5 68.5t-49 47.5t-74.5 28t-94 9q-54 0 -97 -11t-73 -30.5t-46 -46.5t-16 -59q0 -33 17.5 -45.5t41.5 -12.5zM387 280v-97q0 -20 -11.5 -35.5t-30 -26t-42 -16t-46.5 -5.5q-27 0 -45.5 6t-29.5 16.5t-15.5 23.5t-4.5 27
q0 56 73 69q60 11 95.5 22t56.5 16zM267 667q6 -3 12 -5.5t12 -2.5q7 0 17 5.5t10 22.5q0 10 -7 24l-52 78q-11 17 -32 17q-9 0 -18.5 -3.5t-17.5 -10.5t-13.5 -17.5t-5.5 -24.5q0 -22 16 -32z" />
    <glyph glyph-name="aacute" unicode="&#xe1;" horiz-adv-x="564" 
d="M117 374q26 0 40 8t22.5 20t14.5 26.5t15.5 26.5t25.5 20t45 8q22 0 42 -4t35 -11.5t23.5 -19t8.5 -26.5q0 -32 -27.5 -46.5t-68.5 -22.5t-88.5 -16t-88.5 -26t-68.5 -53t-27.5 -97q0 -40 17 -70t44.5 -50.5t62 -30.5t68.5 -10q53 0 95 13t80 49q3 -27 22.5 -44.5
t46.5 -17.5q29 0 49 20t20 49v357q0 40 -17.5 68.5t-49 47.5t-74.5 28t-94 9q-54 0 -97 -11t-73 -30.5t-46 -46.5t-16 -59q0 -33 17.5 -45.5t41.5 -12.5zM387 280v-97q0 -20 -11.5 -35.5t-30 -26t-42 -16t-46.5 -5.5q-27 0 -45.5 6t-29.5 16.5t-15.5 23.5t-4.5 27
q0 56 73 69q60 11 95.5 22t56.5 16zM315 667l79 51q16 10 16 32q0 14 -5.5 24.5t-13.5 17.5t-17.5 10.5t-18.5 3.5q-21 0 -32 -17l-52 -78q-7 -14 -7 -24q0 -17 10 -22.5t17 -5.5q6 0 12 2.5t12 5.5z" />
    <glyph glyph-name="acircumflex" unicode="&#xe2;" horiz-adv-x="564" 
d="M117 374q26 0 40 8t22.5 20t14.5 26.5t15.5 26.5t25.5 20t45 8q22 0 42 -4t35 -11.5t23.5 -19t8.5 -26.5q0 -32 -27.5 -46.5t-68.5 -22.5t-88.5 -16t-88.5 -26t-68.5 -53t-27.5 -97q0 -40 17 -70t44.5 -50.5t62 -30.5t68.5 -10q53 0 95 13t80 49q3 -27 22.5 -44.5
t46.5 -17.5q29 0 49 20t20 49v357q0 40 -17.5 68.5t-49 47.5t-74.5 28t-94 9q-54 0 -97 -11t-73 -30.5t-46 -46.5t-16 -59q0 -33 17.5 -45.5t41.5 -12.5zM387 280v-97q0 -20 -11.5 -35.5t-30 -26t-42 -16t-46.5 -5.5q-27 0 -45.5 6t-29.5 16.5t-15.5 23.5t-4.5 27
q0 56 73 69q60 11 95.5 22t56.5 16zM312 775q-11 11 -24 11t-24 -11l-63 -64q-5 -4 -7 -10.5t-2 -12.5q0 -10 7 -20.5t24 -10.5q14 0 23 9l42 42l42 -42q9 -9 23 -9q17 0 24 10.5t7 20.5q0 6 -2 12.5t-7 10.5z" />
    <glyph glyph-name="atilde" unicode="&#xe3;" horiz-adv-x="564" 
d="M117 374q26 0 40 8t22.5 20t14.5 26.5t15.5 26.5t25.5 20t45 8q22 0 42 -4t35 -11.5t23.5 -19t8.5 -26.5q0 -32 -27.5 -46.5t-68.5 -22.5t-88.5 -16t-88.5 -26t-68.5 -53t-27.5 -97q0 -40 17 -70t44.5 -50.5t62 -30.5t68.5 -10q53 0 95 13t80 49q3 -27 22.5 -44.5
t46.5 -17.5q29 0 49 20t20 49v357q0 40 -17.5 68.5t-49 47.5t-74.5 28t-94 9q-54 0 -97 -11t-73 -30.5t-46 -46.5t-16 -59q0 -33 17.5 -45.5t41.5 -12.5zM387 280v-97q0 -20 -11.5 -35.5t-30 -26t-42 -16t-46.5 -5.5q-27 0 -45.5 6t-29.5 16.5t-15.5 23.5t-4.5 27
q0 56 73 69q60 11 95.5 22t56.5 16zM186 659q13 0 21 6t14.5 12.5l12.5 12.5t15 6q3 0 11 -2l79 -31q7 -3 13.5 -3.5t13.5 -0.5q15 0 30 5.5t27 15t19 23t7 28.5q0 21 -15.5 36.5t-36.5 15.5q-13 0 -21 -6t-14.5 -12.5l-12.5 -12.5t-15 -6q-4 0 -12 2l-79 31q-5 2 -12.5 3
t-13.5 1q-16 0 -31 -5.5t-27 -15t-19 -22.5t-7 -29q0 -21 16 -36.5t37 -15.5z" />
    <glyph glyph-name="adieresis" unicode="&#xe4;" horiz-adv-x="564" 
d="M163 716q0 -25 17.5 -42t42.5 -17q24 0 41.5 17t17.5 42t-17.5 42t-41.5 17q-25 0 -42.5 -17t-17.5 -42zM308 716q0 -25 17.5 -42t42.5 -17q24 0 41.5 17t17.5 42t-17.5 42t-41.5 17q-25 0 -42.5 -17t-17.5 -42zM117 374q26 0 40 8t22.5 20t14.5 26.5t15.5 26.5t25.5 20
t45 8q22 0 42 -4t35 -11.5t23.5 -19t8.5 -26.5q0 -32 -27.5 -46.5t-68.5 -22.5t-88.5 -16t-88.5 -26t-68.5 -53t-27.5 -97q0 -40 17 -70t44.5 -50.5t62 -30.5t68.5 -10q53 0 95 13t80 49q3 -27 22.5 -44.5t46.5 -17.5q29 0 49 20t20 49v357q0 40 -17.5 68.5t-49 47.5
t-74.5 28t-94 9q-54 0 -97 -11t-73 -30.5t-46 -46.5t-16 -59q0 -33 17.5 -45.5t41.5 -12.5zM387 280v-97q0 -20 -11.5 -35.5t-30 -26t-42 -16t-46.5 -5.5q-27 0 -45.5 6t-29.5 16.5t-15.5 23.5t-4.5 27q0 56 73 69q60 11 95.5 22t56.5 16z" />
    <glyph glyph-name="aring" unicode="&#xe5;" horiz-adv-x="564" 
d="M212 737q0 -33 23 -56t56 -23q12 0 25.5 6t25.5 17t19.5 25t7.5 31q0 33 -23 56t-55 23q-33 0 -56 -23t-23 -56zM291 691q-20 0 -33.5 13.5t-13.5 32.5t13.5 32.5t33.5 13.5q19 0 32.5 -13.5t13.5 -32.5t-14.5 -32.5t-31.5 -13.5zM117 374q26 0 40 8t22.5 20t14.5 26.5
t15.5 26.5t25.5 20t45 8q22 0 42 -4t35 -11.5t23.5 -19t8.5 -26.5q0 -32 -27.5 -46.5t-68.5 -22.5t-88.5 -16t-88.5 -26t-68.5 -53t-27.5 -97q0 -40 17 -70t44.5 -50.5t62 -30.5t68.5 -10q53 0 95 13t80 49q3 -27 22.5 -44.5t46.5 -17.5q29 0 49 20t20 49v357
q0 40 -17.5 68.5t-49 47.5t-74.5 28t-94 9q-54 0 -97 -11t-73 -30.5t-46 -46.5t-16 -59q0 -33 17.5 -45.5t41.5 -12.5zM387 280v-97q0 -20 -11.5 -35.5t-30 -26t-42 -16t-46.5 -5.5q-27 0 -45.5 6t-29.5 16.5t-15.5 23.5t-4.5 27q0 56 73 69q60 11 95.5 22t56.5 16z" />
    <glyph glyph-name="ae" unicode="&#xe6;" horiz-adv-x="936" 
d="M387 281v-98q0 -20 -11.5 -35.5t-30 -26t-42 -16t-46.5 -5.5q-51 0 -73 20t-22 53q0 56 73 69q30 5 51.5 10t39 9.5t32 9.5zM659 461q33 0 57 -11t39.5 -26.5t23 -32.5t7.5 -30q0 -19 -13 -19h-228q-15 0 -15 20q0 13 8 30t23.5 32.5t40 26t57.5 10.5zM450 88
q47 -49 98.5 -68.5t117.5 -19.5q61 0 104 15t69.5 36t38.5 43t12 35t-6 25.5t-15 22t-21 15.5t-24 6q-20 0 -34 -17q-16 -20 -30 -32.5t-28 -19t-30 -9t-36 -2.5q-35 0 -62 11t-45 27t-27 34t-9 32q0 11 5.5 17.5t16.5 6.5h320q25 0 38 23t13 58q0 37 -15 81t-46.5 82
t-80 63.5t-115.5 25.5q-39 0 -85.5 -11t-87.5 -46l-20 15.5t-34.5 18.5t-56.5 16t-85 7q-69 0 -113.5 -15t-71 -37.5t-37 -48t-10.5 -47.5q0 -32 16.5 -44.5t42.5 -12.5t40.5 8t23 20t14 26.5t15 26.5t25.5 20t45 8q45 0 76 -14.5t31 -52.5q0 -29 -27 -42t-68 -21
l-88.5 -16.5t-88.5 -26.5t-68 -51.5t-27 -92.5q0 -42 17 -73.5t44.5 -52t62 -30.5t68.5 -10q32 0 66 5t66 15.5t59.5 27.5t46.5 40z" />
    <glyph glyph-name="ccedilla" unicode="&#xe7;" horiz-adv-x="558" 
d="M336 -11q48 4 85.5 25.5t63.5 48.5t39.5 53t13.5 39q0 15 -8 28.5t-20 23.5t-26.5 16t-27.5 6q-14 0 -25.5 -7.5t-16.5 -25.5q-3 -13 -11 -28.5t-22.5 -29.5t-35.5 -23.5t-49 -9.5q-62 0 -97 43t-35 135t35 135t97 43q28 0 49.5 -9.5t35.5 -23.5t22 -29.5t11 -28.5
q4 -18 16 -25.5t26 -7.5q13 0 27.5 6t26.5 16t20 23.5t8 28.5q0 9 -12.5 36t-41 56.5t-75 52.5t-113.5 23q-59 0 -109.5 -21t-87.5 -60t-58 -93.5t-21 -121.5t20 -119t53 -89t75.5 -58.5t88.5 -27.5v-54q0 -22 -13.5 -31t-26.5 -9h-59q-17 0 -28.5 -11t-11.5 -28t11.5 -28.5
t28.5 -11.5h59q36 0 59 11t36.5 28.5t18.5 38.5t5 41v54z" />
    <glyph glyph-name="egrave" unicode="&#xe8;" horiz-adv-x="569" 
d="M498 246q25 0 38 23t13 58q0 37 -15 81t-46.5 82t-80 63.5t-115.5 25.5q-69 0 -120 -24t-85 -64.5t-50.5 -94t-16.5 -113.5t18.5 -113.5t54 -94t87.5 -64.5t118 -24q58 0 100 17.5t70 41t41.5 47t13.5 36.5t-6 25.5t-15 22.5t-21 16t-24 6q-19 0 -34 -18
q-17 -20 -30.5 -34.5t-27.5 -23.5t-30 -13.5t-37 -4.5q-35 0 -61.5 12t-44.5 30t-27 37.5t-9 34.5q0 12 5.5 19.5t16.5 7.5h320zM292 461q33 0 57 -11t39.5 -26.5t23 -32.5t7.5 -30q0 -19 -13 -19h-228q-15 0 -15 20q0 13 8 30t23.5 32.5t40 26t57.5 10.5zM269 667
q6 -3 12 -5.5t12 -2.5q7 0 17 5.5t10 22.5q0 10 -7 24l-52 78q-11 17 -32 17q-9 0 -18.5 -3.5t-17.5 -10.5t-13.5 -17.5t-5.5 -24.5q0 -22 16 -32z" />
    <glyph glyph-name="eacute" unicode="&#xe9;" horiz-adv-x="569" 
d="M498 246q25 0 38 23t13 58q0 37 -15 81t-46.5 82t-80 63.5t-115.5 25.5q-69 0 -120 -24t-85 -64.5t-50.5 -94t-16.5 -113.5t18.5 -113.5t54 -94t87.5 -64.5t118 -24q58 0 100 17.5t70 41t41.5 47t13.5 36.5t-6 25.5t-15 22.5t-21 16t-24 6q-19 0 -34 -18
q-17 -20 -30.5 -34.5t-27.5 -23.5t-30 -13.5t-37 -4.5q-35 0 -61.5 12t-44.5 30t-27 37.5t-9 34.5q0 12 5.5 19.5t16.5 7.5h320zM292 461q33 0 57 -11t39.5 -26.5t23 -32.5t7.5 -30q0 -19 -13 -19h-228q-15 0 -15 20q0 13 8 30t23.5 32.5t40 26t57.5 10.5zM316 667l79 51
q16 10 16 32q0 14 -5.5 24.5t-13.5 17.5t-17.5 10.5t-18.5 3.5q-21 0 -32 -17l-52 -78q-7 -14 -7 -24q0 -17 10 -22.5t17 -5.5q6 0 12 2.5t12 5.5z" />
    <glyph glyph-name="ecircumflex" unicode="&#xea;" horiz-adv-x="569" 
d="M498 246q25 0 38 23t13 58q0 37 -15 81t-46.5 82t-80 63.5t-115.5 25.5q-69 0 -120 -24t-85 -64.5t-50.5 -94t-16.5 -113.5t18.5 -113.5t54 -94t87.5 -64.5t118 -24q58 0 100 17.5t70 41t41.5 47t13.5 36.5t-6 25.5t-15 22.5t-21 16t-24 6q-19 0 -34 -18
q-17 -20 -30.5 -34.5t-27.5 -23.5t-30 -13.5t-37 -4.5q-35 0 -61.5 12t-44.5 30t-27 37.5t-9 34.5q0 12 5.5 19.5t16.5 7.5h320zM292 461q33 0 57 -11t39.5 -26.5t23 -32.5t7.5 -30q0 -19 -13 -19h-228q-15 0 -15 20q0 13 8 30t23.5 32.5t40 26t57.5 10.5zM317 775
q-11 11 -24 11t-24 -11l-63 -64q-5 -4 -7 -10.5t-2 -12.5q0 -10 7 -20.5t24 -10.5q14 0 23 9l42 42l42 -42q9 -9 23 -9q17 0 24 10.5t7 20.5q0 6 -2 12.5t-7 10.5z" />
    <glyph glyph-name="edieresis" unicode="&#xeb;" horiz-adv-x="569" 
d="M161 716q0 -25 17 -42t42 -17q24 0 41.5 17t17.5 42t-17.5 42t-41.5 17q-25 0 -42 -17t-17 -42zM306 716q0 -25 17 -42t42 -17q24 0 41.5 17t17.5 42t-17.5 42t-41.5 17q-25 0 -42 -17t-17 -42zM498 246q25 0 38 23t13 58q0 37 -15 81t-46.5 82t-80 63.5t-115.5 25.5
q-69 0 -120 -24t-85 -64.5t-50.5 -94t-16.5 -113.5t18.5 -113.5t54 -94t87.5 -64.5t118 -24q58 0 100 17.5t70 41t41.5 47t13.5 36.5t-6 25.5t-15 22.5t-21 16t-24 6q-19 0 -34 -18q-17 -20 -30.5 -34.5t-27.5 -23.5t-30 -13.5t-37 -4.5q-35 0 -61.5 12t-44.5 30t-27 37.5
t-9 34.5q0 12 5.5 19.5t16.5 7.5h320zM292 461q33 0 57 -11t39.5 -26.5t23 -32.5t7.5 -30q0 -19 -13 -19h-228q-15 0 -15 20q0 13 8 30t23.5 32.5t40 26t57.5 10.5z" />
    <glyph glyph-name="igrave" unicode="&#xec;" horiz-adv-x="230" 
d="M191 493q0 30 -21 51.5t-51 21.5t-51.5 -21.5t-21.5 -51.5v-421q0 -29 21.5 -50.5t50.5 -21.5q30 0 51.5 21t21.5 51v421zM97 667q6 -3 12 -5.5t12 -2.5q7 0 17 5.5t10 22.5q0 10 -7 24l-52 78q-11 17 -32 17q-9 0 -18.5 -3.5t-17.5 -10.5t-13.5 -17.5t-5.5 -24.5
q0 -22 16 -32z" />
    <glyph glyph-name="iacute" unicode="&#xed;" horiz-adv-x="230" 
d="M184 493q0 30 -21 51.5t-51 21.5t-51.5 -21.5t-21.5 -51.5v-421q0 -29 21.5 -50.5t50.5 -21.5q30 0 51.5 21t21.5 51v421zM133 667l79 51q16 10 16 32q0 14 -5.5 24.5t-13.5 17.5t-17.5 10.5t-18.5 3.5q-21 0 -32 -17l-52 -78q-7 -14 -7 -24q0 -17 10 -22.5t17 -5.5
q6 0 12 2.5t12 5.5z" />
    <glyph glyph-name="icircumflex" unicode="&#xee;" horiz-adv-x="178" 
d="M162 493q0 30 -21 51.5t-51 21.5t-51.5 -21.5t-21.5 -51.5v-421q0 -29 21.5 -50.5t50.5 -21.5q30 0 51.5 21t21.5 51v421zM112 775q-11 11 -24 11t-24 -11l-63 -64q-5 -4 -7 -10.5t-2 -12.5q0 -10 7 -20.5t24 -10.5q14 0 23 9l42 42l42 -42q9 -9 23 -9q17 0 24 10.5
t7 20.5q0 6 -2 12.5t-7 10.5z" />
    <glyph glyph-name="idieresis" unicode="&#xef;" horiz-adv-x="189" 
d="M165 493q0 30 -21 51.5t-51 21.5t-51.5 -21.5t-21.5 -51.5v-421q0 -29 21.5 -50.5t50.5 -21.5q30 0 51.5 21t21.5 51v421zM-37 716q0 -25 17 -42t42 -17q24 0 41.5 17t17.5 42t-17.5 42t-41.5 17q-25 0 -42 -17t-17 -42zM108 716q0 -25 17 -42t42 -17q24 0 41.5 17
t17.5 42t-17.5 42t-41.5 17q-25 0 -42 -17t-17 -42z" />
    <glyph glyph-name="eth" unicode="&#xf0;" horiz-adv-x="619" 
d="M99 796q-15 0 -25.5 -13t-10.5 -30q0 -18 12.5 -30.5t30.5 -12.5q9 0 26.5 -1t39 -3t45 -7t46.5 -12l-56 -56h61l37 37q28 -14 59.5 -40.5t52.5 -67.5q-52 19 -108 19q-60 0 -113 -21.5t-92 -60.5t-61.5 -93.5t-22.5 -120.5t22.5 -120.5t61.5 -93.5t92 -60.5t113 -21.5
q61 0 114 21.5t92 60.5t61.5 93.5t22.5 120.5q0 97 -19 171.5t-50.5 129.5t-72.5 92t-84 60l60 60h-62l-40 -40q-28 12 -61 20t-65 12.5t-60 6t-46 1.5zM467 283q0 -38 -11 -73t-31 -61t-49.5 -41.5t-66.5 -15.5t-66 15.5t-49.5 41.5t-31.5 61t-11 73t11 72.5t31.5 61
t49.5 42t66 15.5t66.5 -15.5t49.5 -42t31 -61t11 -72.5z" />
    <glyph glyph-name="ntilde" unicode="&#xf1;" horiz-adv-x="578" 
d="M539 402q0 40 -14.5 72.5t-40 55.5t-59.5 36t-72 13q-34 0 -61 -7.5t-48 -18t-36 -23.5t-24 -23q0 29 -21 50.5t-51 21.5t-51.5 -21.5t-21.5 -50.5v-435q0 -29 21.5 -50.5t51.5 -21.5t51 21.5t21 50.5v282q0 22 8.5 41t22.5 33t33.5 22.5t40.5 8.5q22 0 41 -8.5t33 -22.5
t22.5 -33t8.5 -41v-282q0 -29 21.5 -50.5t51.5 -21.5t51 21.5t21 50.5v330zM190 659q13 0 21 6t14.5 12.5l12.5 12.5t15 6q3 0 11 -2l79 -31q7 -3 13.5 -3.5t13.5 -0.5q15 0 30 5.5t27 15t19 23t7 28.5q0 21 -15.5 36.5t-36.5 15.5q-13 0 -21 -6t-14.5 -12.5l-12.5 -12.5
t-15 -6q-4 0 -12 2l-79 31q-5 2 -12.5 3t-13.5 1q-16 0 -31 -5.5t-27 -15t-19 -22.5t-7 -29q0 -21 16 -36.5t37 -15.5z" />
    <glyph glyph-name="ograve" unicode="&#xf2;" horiz-adv-x="619" 
d="M309 -13q61 0 114 21.5t92 60.5t61.5 93.5t22.5 120.5t-22.5 120.5t-61.5 93.5t-92 60.5t-114 21.5q-60 0 -113 -21.5t-92 -60.5t-61.5 -93.5t-22.5 -120.5t22.5 -120.5t61.5 -93.5t92 -60.5t113 -21.5zM467 283q0 -38 -11 -73t-31 -61t-49.5 -41.5t-66.5 -15.5t-66 15.5
t-49.5 41.5t-31.5 61t-11 73t11 72.5t31.5 61t49.5 42t66 15.5t66.5 -15.5t49.5 -42t31 -61t11 -72.5zM285 667q6 -3 12 -5.5t12 -2.5q7 0 17 5.5t10 22.5q0 10 -7 24l-52 78q-11 17 -32 17q-9 0 -18.5 -3.5t-17.5 -10.5t-13.5 -17.5t-5.5 -24.5q0 -22 16 -32z" />
    <glyph glyph-name="oacute" unicode="&#xf3;" horiz-adv-x="619" 
d="M309 -13q61 0 114 21.5t92 60.5t61.5 93.5t22.5 120.5t-22.5 120.5t-61.5 93.5t-92 60.5t-114 21.5q-60 0 -113 -21.5t-92 -60.5t-61.5 -93.5t-22.5 -120.5t22.5 -120.5t61.5 -93.5t92 -60.5t113 -21.5zM467 283q0 -38 -11 -73t-31 -61t-49.5 -41.5t-66.5 -15.5t-66 15.5
t-49.5 41.5t-31.5 61t-11 73t11 72.5t31.5 61t49.5 42t66 15.5t66.5 -15.5t49.5 -42t31 -61t11 -72.5zM331 667l79 51q16 10 16 32q0 14 -5.5 24.5t-13.5 17.5t-17.5 10.5t-18.5 3.5q-21 0 -32 -17l-52 -78q-7 -14 -7 -24q0 -17 10 -22.5t17 -5.5q6 0 12 2.5t12 5.5z" />
    <glyph glyph-name="ocircumflex" unicode="&#xf4;" horiz-adv-x="619" 
d="M309 -13q61 0 114 21.5t92 60.5t61.5 93.5t22.5 120.5t-22.5 120.5t-61.5 93.5t-92 60.5t-114 21.5q-60 0 -113 -21.5t-92 -60.5t-61.5 -93.5t-22.5 -120.5t22.5 -120.5t61.5 -93.5t92 -60.5t113 -21.5zM467 283q0 -38 -11 -73t-31 -61t-49.5 -41.5t-66.5 -15.5t-66 15.5
t-49.5 41.5t-31.5 61t-11 73t11 72.5t31.5 61t49.5 42t66 15.5t66.5 -15.5t49.5 -42t31 -61t11 -72.5zM332 775q-11 11 -24 11t-24 -11l-63 -64q-5 -4 -7 -10.5t-2 -12.5q0 -10 7 -20.5t24 -10.5q14 0 23 9l42 42l42 -42q9 -9 23 -9q17 0 24 10.5t7 20.5q0 6 -2 12.5
t-7 10.5z" />
    <glyph glyph-name="otilde" unicode="&#xf5;" horiz-adv-x="619" 
d="M309 -13q61 0 114 21.5t92 60.5t61.5 93.5t22.5 120.5t-22.5 120.5t-61.5 93.5t-92 60.5t-114 21.5q-60 0 -113 -21.5t-92 -60.5t-61.5 -93.5t-22.5 -120.5t22.5 -120.5t61.5 -93.5t92 -60.5t113 -21.5zM467 283q0 -38 -11 -73t-31 -61t-49.5 -41.5t-66.5 -15.5t-66 15.5
t-49.5 41.5t-31.5 61t-11 73t11 72.5t31.5 61t49.5 42t66 15.5t66.5 -15.5t49.5 -42t31 -61t11 -72.5zM208 659q13 0 21 6t14.5 12.5l12.5 12.5t15 6q3 0 11 -2l79 -31q7 -3 13.5 -3.5t13.5 -0.5q15 0 30 5.5t27 15t19 23t7 28.5q0 21 -15.5 36.5t-36.5 15.5q-13 0 -21 -6
t-14.5 -12.5l-12.5 -12.5t-15 -6q-4 0 -12 2l-79 31q-5 2 -12.5 3t-13.5 1q-16 0 -31 -5.5t-27 -15t-19 -22.5t-7 -29q0 -21 16 -36.5t37 -15.5z" />
    <glyph glyph-name="odieresis" unicode="&#xf6;" horiz-adv-x="619" 
d="M179 716q0 -25 17.5 -42t41.5 -17q25 0 42 17t17 42t-17 42t-42 17q-24 0 -41.5 -17t-17.5 -42zM324 716q0 -25 17.5 -42t41.5 -17q25 0 42 17t17 42t-17 42t-42 17q-24 0 -41.5 -17t-17.5 -42zM309 -13q61 0 114 21.5t92 60.5t61.5 93.5t22.5 120.5t-22.5 120.5
t-61.5 93.5t-92 60.5t-114 21.5q-60 0 -113 -21.5t-92 -60.5t-61.5 -93.5t-22.5 -120.5t22.5 -120.5t61.5 -93.5t92 -60.5t113 -21.5zM467 283q0 -38 -11 -73t-31 -61t-49.5 -41.5t-66.5 -15.5t-66 15.5t-49.5 41.5t-31.5 61t-11 73t11 72.5t31.5 61t49.5 42t66 15.5
t66.5 -15.5t49.5 -42t31 -61t11 -72.5z" />
    <glyph glyph-name="oslash" unicode="&#xf8;" horiz-adv-x="628" 
d="M173 188q-12 26 -15.5 49t-3.5 46q0 38 11 72.5t31.5 61t49.5 42t66 15.5q33 0 56 -10t46 -32zM129 50q32 -26 78.5 -44.5t104.5 -18.5q61 0 114 21.5t92 60.5t61.5 93.5t22.5 120.5q0 51 -13 95.5t-47 90.5l60 60q6 6 6 14q0 9 -8 22t-26 13q-9 0 -17 -4.5t-15 -11.5
l-45 -47q-45 36 -90.5 50t-94.5 14q-60 0 -113 -21.5t-92 -60.5t-61.5 -93.5t-22.5 -120.5q0 -44 12.5 -92t47.5 -94l-55 -56q-8 -8 -8 -20q0 -13 9 -23.5t22 -10.5q10 0 19 6.5t17 14.5zM312 92q-56 0 -101 41l240 244q12 -26 15.5 -48t3.5 -46q0 -38 -11 -73t-31 -61
t-49.5 -41.5t-66.5 -15.5z" />
    <glyph glyph-name="ugrave" unicode="&#xf9;" horiz-adv-x="578" 
d="M39 177q0 -40 15 -72.5t40.5 -56t59.5 -36t72 -12.5q34 0 61 7.5t48 18t36 23t24 23.5q0 -29 21 -50.5t51 -21.5t51 21.5t21 50.5v435q0 29 -21 50.5t-51 21.5t-51.5 -21.5t-21.5 -50.5v-282q0 -22 -8.5 -41t-22.5 -33.5t-33 -22.5t-41 -8q-21 0 -40.5 8t-33.5 22.5
t-22.5 33.5t-8.5 41v282q0 29 -21 50.5t-51 21.5t-51.5 -21.5t-21.5 -50.5v-330zM264 667q6 -3 12 -5.5t12 -2.5q7 0 17 5.5t10 22.5q0 10 -7 24l-52 78q-11 17 -32 17q-9 0 -18.5 -3.5t-17.5 -10.5t-13.5 -17.5t-5.5 -24.5q0 -22 16 -32z" />
    <glyph glyph-name="uacute" unicode="&#xfa;" horiz-adv-x="578" 
d="M39 177q0 -40 15 -72.5t40.5 -56t59.5 -36t72 -12.5q34 0 61 7.5t48 18t36 23t24 23.5q0 -29 21 -50.5t51 -21.5t51 21.5t21 50.5v435q0 29 -21 50.5t-51 21.5t-51.5 -21.5t-21.5 -50.5v-282q0 -22 -8.5 -41t-22.5 -33.5t-33 -22.5t-41 -8q-21 0 -40.5 8t-33.5 22.5
t-22.5 33.5t-8.5 41v282q0 29 -21 50.5t-51 21.5t-51.5 -21.5t-21.5 -50.5v-330zM293 667l79 51q16 10 16 32q0 14 -5.5 24.5t-13.5 17.5t-17.5 10.5t-18.5 3.5q-21 0 -32 -17l-52 -78q-7 -14 -7 -24q0 -17 10 -22.5t17 -5.5q6 0 12 2.5t12 5.5z" />
    <glyph glyph-name="ucircumflex" unicode="&#xfb;" horiz-adv-x="578" 
d="M39 177q0 -40 15 -72.5t40.5 -56t59.5 -36t72 -12.5q34 0 61 7.5t48 18t36 23t24 23.5q0 -29 21 -50.5t51 -21.5t51 21.5t21 50.5v435q0 29 -21 50.5t-51 21.5t-51.5 -21.5t-21.5 -50.5v-282q0 -22 -8.5 -41t-22.5 -33.5t-33 -22.5t-41 -8q-21 0 -40.5 8t-33.5 22.5
t-22.5 33.5t-8.5 41v282q0 29 -21 50.5t-51 21.5t-51.5 -21.5t-21.5 -50.5v-330zM313 775q-11 11 -24 11t-24 -11l-63 -64q-5 -4 -7 -10.5t-2 -12.5q0 -10 7 -20.5t24 -10.5q14 0 23 9l42 42l42 -42q9 -9 23 -9q17 0 24 10.5t7 20.5q0 6 -2 12.5t-7 10.5z" />
    <glyph glyph-name="udieresis" unicode="&#xfc;" horiz-adv-x="578" 
d="M158 716q0 -25 17 -42t42 -17t42 17t17 42t-17 42t-42 17t-42 -17t-17 -42zM303 716q0 -25 17 -42t42 -17t42 17t17 42t-17 42t-42 17t-42 -17t-17 -42zM39 177q0 -40 15 -72.5t40.5 -56t59.5 -36t72 -12.5q34 0 61 7.5t48 18t36 23t24 23.5q0 -29 21 -50.5t51 -21.5
t51 21.5t21 50.5v435q0 29 -21 50.5t-51 21.5t-51.5 -21.5t-21.5 -50.5v-282q0 -22 -8.5 -41t-22.5 -33.5t-33 -22.5t-41 -8q-21 0 -40.5 8t-33.5 22.5t-22.5 33.5t-8.5 41v282q0 29 -21 50.5t-51 21.5t-51.5 -21.5t-21.5 -50.5v-330z" />
    <glyph glyph-name="yacute" unicode="&#xfd;" horiz-adv-x="533" 
d="M73 -86q-27 0 -39.5 -14t-12.5 -34q0 -14 5.5 -27.5t16 -24.5t25 -18t33.5 -7h52q24 0 50.5 3.5t50.5 16.5t44.5 37t34.5 66l184 574q3 9 3 19q0 34 -24 54t-54 20q-23 0 -42.5 -12t-25.5 -35l-96 -379l-123 380q-7 22 -26 33.5t-41 11.5q-21 0 -35.5 -7.5t-23 -18.5
t-12.5 -24t-4 -25q0 -17 6 -32l167 -424q9 -23 13 -40t4 -31q0 -23 -10.5 -35.5t-28.5 -18.5t-41.5 -7t-49.5 -1zM302 667l79 51q16 10 16 32q0 14 -5.5 24.5t-13.5 17.5t-17.5 10.5t-18.5 3.5q-21 0 -32 -17l-52 -78q-7 -14 -7 -24q0 -17 10 -22.5t17 -5.5q6 0 12 2.5
t12 5.5z" />
    <glyph glyph-name="thorn" unicode="&#xfe;" horiz-adv-x="597" 
d="M445 289q0 -79 -35 -125t-99 -46q-63 0 -98 46t-35 125q0 80 35 126t98 46q64 0 99 -46t35 -126zM191 507v210q0 29 -21.5 50.5t-51.5 21.5q-29 0 -50.5 -21.5t-21.5 -50.5v-855q0 -30 21.5 -51.5t50.5 -21.5q30 0 51.5 21.5t21.5 51.5v196q0 13 5 13q6 0 18 -11
t31.5 -24.5t47.5 -24.5t65 -11q49 0 89.5 21t69.5 59.5t44.5 91.5t15.5 117t-15.5 117.5t-44.5 92t-69.5 59.5t-89.5 21q-39 0 -66.5 -6.5t-47 -17t-32 -23.5t-21.5 -25z" />
    <glyph glyph-name="ydieresis" unicode="&#xff;" horiz-adv-x="533" 
d="M132 716q0 -25 17 -42t42 -17q24 0 41.5 17t17.5 42t-17.5 42t-41.5 17q-25 0 -42 -17t-17 -42zM277 716q0 -25 17 -42t42 -17q24 0 41.5 17t17.5 42t-17.5 42t-41.5 17q-25 0 -42 -17t-17 -42zM73 -86q-27 0 -39.5 -14t-12.5 -34q0 -14 5.5 -27.5t16 -24.5t25 -18
t33.5 -7h52q24 0 50.5 3.5t50.5 16.5t44.5 37t34.5 66l184 574q3 9 3 19q0 34 -24 54t-54 20q-23 0 -42.5 -12t-25.5 -35l-96 -379l-123 380q-7 22 -26 33.5t-41 11.5q-21 0 -35.5 -7.5t-23 -18.5t-12.5 -24t-4 -25q0 -17 6 -32l167 -424q9 -23 13 -40t4 -31
q0 -23 -10.5 -35.5t-28.5 -18.5t-41.5 -7t-49.5 -1z" />
    <glyph glyph-name="minus" unicode="&#xe000;" horiz-adv-x="461" 
d="M389 342q22 0 37 15.5t15 37.5t-15 37t-37 15h-316q-22 0 -37.5 -15t-15.5 -37t15.5 -37.5t37.5 -15.5h316z" />
    <glyph glyph-name="partialdiff" unicode="&#xe001;" horiz-adv-x="1047" 
d="M110 720q-10 -11 -25 -18t-29.5 -14.5t-25 -18t-10.5 -26.5q0 -19 15 -36.5t37 -17.5q17 0 27.5 2.5t17.5 2.5q8 0 12 -5t4 -19v-316q0 -23 16.5 -40t40.5 -17t41 17t17 40v478q0 28 -19 42.5t-39 14.5q-14 0 -24 -6t-19 -15.5t-17.5 -22t-19.5 -25.5zM656 727q5 12 5 22
q0 17 -6.5 27.5t-15.5 16t-18 7.5t-13 2q-15 0 -28 -8t-20 -22l-327 -698q-5 -12 -5 -21q0 -22 15 -38t38 -16q15 0 28 8t20 22zM799 502q45 0 71 -20t26 -55q0 -24 -12.5 -39.5t-30 -24.5t-36.5 -12.5t-33 -3.5q-15 0 -22 -11t-7 -25t7.5 -27t21.5 -13q19 0 41 -3.5t40 -14
t30 -30t12 -50.5q0 -21 -10 -37t-25.5 -27t-35.5 -16.5t-41 -5.5q-28 0 -49 9.5t-35 23t-22.5 28t-12.5 25.5q-5 15 -16 21.5t-25 6.5q-20 0 -38 -14t-18 -40q0 -15 11 -42t36 -52.5t66.5 -44.5t102.5 -19q43 0 84.5 11.5t74.5 34t53 55t20 75.5q0 37 -10.5 62.5t-27.5 42
t-37.5 26.5t-41.5 17q27 9 45.5 22.5t30.5 30t17.5 34t5.5 34.5q0 33 -15 63.5t-42 53.5t-66 36.5t-87 13.5q-55 0 -92.5 -19t-60 -44.5t-32.5 -51.5t-10 -39q0 -29 17 -43.5t37 -14.5q14 0 26 8t17 28q3 13 10 27t19 25t29 18t40 7z" />
    <glyph glyph-name="summation" unicode="&#xe002;" horiz-adv-x="1012" 
d="M110 720q-10 -11 -25 -18t-29.5 -14.5t-25 -18t-10.5 -26.5q0 -19 15 -36.5t37 -17.5q17 0 27.5 2.5t17.5 2.5q8 0 12 -5t4 -19v-316q0 -23 16.5 -40t40.5 -17t41 17t17 40v478q0 28 -19 42.5t-39 14.5q-14 0 -24 -6t-19 -15.5t-17.5 -22t-19.5 -25.5zM656 727q5 12 5 22
q0 17 -6.5 27.5t-15.5 16t-18 7.5t-13 2q-15 0 -28 -8t-20 -22l-327 -698q-5 -12 -5 -21q0 -22 15 -38t38 -16q15 0 28 8t20 22zM506 225q0 -36 26 -62t69 -26h186v-80q0 -23 16.5 -40t40.5 -17t41 17t17 40v80h40q20 0 35 14t15 35q0 20 -15 34.5t-35 14.5h-40v271
q0 37 -23.5 61.5t-57.5 24.5q-23 0 -40.5 -13.5t-34.5 -33.5l-210 -248q-30 -33 -30 -72zM787 451v-216h-181z" />
    <glyph glyph-name="product" unicode="&#xe003;" horiz-adv-x="1248" 
d="M857 727q5 12 5 22q0 17 -6.5 27.5t-15.5 16t-18 7.5t-13 2q-15 0 -28 -8t-20 -22l-327 -698q-5 -12 -5 -21q0 -22 15 -38t38 -16q15 0 28 8t20 22zM1000 502q45 0 71 -20t26 -55q0 -24 -12.5 -39.5t-30 -24.5t-36.5 -12.5t-33 -3.5q-15 0 -22 -11t-7 -25t7.5 -27
t21.5 -13q19 0 41 -3.5t40 -14t30 -30t12 -50.5q0 -21 -10 -37t-25.5 -27t-35.5 -16.5t-41 -5.5q-28 0 -49 9.5t-35 23t-22.5 28t-12.5 25.5q-5 15 -16 21.5t-25 6.5q-20 0 -38 -14t-18 -40q0 -15 11 -42t36 -52.5t66.5 -44.5t102.5 -19q43 0 84.5 11.5t74.5 34t53 55
t20 75.5q0 37 -10.5 62.5t-27.5 42t-37.5 26.5t-41.5 17q27 9 45.5 22.5t30.5 30t17.5 34t5.5 34.5q0 33 -15 63.5t-42 53.5t-66 36.5t-87 13.5q-55 0 -92.5 -19t-60 -44.5t-32.5 -51.5t-10 -39q0 -29 17 -43.5t37 -14.5q14 0 26 8t17 28q3 13 10 27t19 25t29 18t40 7z
M31 646q0 -36 18.5 -51.5t40.5 -15.5q20 0 35.5 11.5t15.5 31.5q0 45 24 61.5t58 16.5q41 0 69 -22.5t28 -73.5q0 -33 -22 -62.5t-55.5 -57t-72.5 -55t-72.5 -56.5t-55.5 -60.5t-22 -66.5q0 -18 14.5 -34t34.5 -16h332q20 0 34.5 14.5t14.5 35.5q0 20 -14.5 34t-34.5 14
h-203q-14 0 -19 2.5t-5 7.5t6 12t14 14t17 13t15 11q20 15 55.5 37t70.5 52t61 69t26 88q0 57 -18 95.5t-48 61t-69 32t-81 9.5q-36 0 -70.5 -9.5t-61.5 -28t-43.5 -47t-16.5 -67.5z" />
    <glyph glyph-name="pi" unicode="&#xe004;" horiz-adv-x="1192" 
d="M836 727q5 12 5 22q0 17 -6.5 27.5t-15.5 16t-18 7.5t-13 2q-15 0 -28 -8t-20 -22l-327 -698q-5 -12 -5 -21q0 -22 15 -38t38 -16q15 0 28 8t20 22zM686 225q0 -36 26 -62t69 -26h186v-80q0 -23 16.5 -40t40.5 -17t41 17t17 40v80h40q20 0 35 14t15 35q0 20 -15 34.5
t-35 14.5h-40v271q0 37 -23.5 61.5t-57.5 24.5q-23 0 -40.5 -13.5t-34.5 -33.5l-210 -248q-30 -33 -30 -72zM967 451v-216h-181zM240 704q45 0 71 -20t26 -55q0 -24 -12.5 -39.5t-30 -24.5t-36.5 -12.5t-33 -3.5q-15 0 -22 -11t-7 -25t7.5 -27t21.5 -13q19 0 41 -3.5t40 -14
t30 -30t12 -50.5q0 -21 -10 -37t-25.5 -27t-35.5 -16.5t-41 -5.5q-28 0 -49 9.5t-35 23t-22.5 28t-12.5 25.5q-5 15 -16 21.5t-25 6.5q-20 0 -38 -14t-18 -40q0 -15 11 -42t36 -52.5t66.5 -44.5t102.5 -19q43 0 84.5 11.5t74.5 34t53 55t20 75.5q0 37 -10.5 62.5t-27.5 42
t-37.5 26.5t-41.5 17q27 9 45.5 22.5t30.5 30t17.5 34t5.5 34.5q0 33 -15 63.5t-42 53.5t-66 36.5t-87 13.5q-55 0 -92.5 -19t-60 -44.5t-32.5 -51.5t-10 -39q0 -29 17 -43.5t37 -14.5q14 0 26 8t17 28q3 13 10 27t19 25t29 18t40 7z" />
    <glyph glyph-name="integral" unicode="&#xe005;" horiz-adv-x="881" 
d="M46 789v-789h789v789h-789zM78 757h725v-725h-725v725z" />
    <glyph glyph-name="radical" unicode="&#xe006;" horiz-adv-x="943" 
d="M12 454v-163l291 -291l628 628v161l-628 -628z" />
    <glyph glyph-name="approxequal" unicode="&#xe007;" horiz-adv-x="828" 
d="M492 465v-155h-155v155h155zM260 542h-78q-16 0 -30 6t-24.5 16.5t-16.5 25t-6 30.5q0 32 22.5 55t54.5 23q16 0 30.5 -6.5t25 -17t16.5 -24.5t6 -30v-78zM260 465v-155h-78q-32 0 -60 -12.5t-49 -33.5t-33.5 -49t-12.5 -60t12.5 -60t33.5 -49t49 -33.5t60 -12.5
t60.5 12.5t49.5 33.5t33 49t12 60v78h155v-78q0 -32 12 -60.5t33 -49.5t49 -33t60 -12t60 12.5t49 33.5t33.5 49t12.5 60t-12.5 60t-33.5 49t-49 33.5t-60 12.5h-77v155h77q32 0 60 12.5t49 33.5t33.5 49t12.5 60t-12.5 60t-33.5 49t-49 33.5t-60 12.5t-60 -12.5t-49 -33.5
t-33 -49t-12 -60v-78h-155v78q0 32 -12 60t-33 49t-49.5 33.5t-60.5 12.5t-60 -12.5t-49 -33.5t-33.5 -49t-12.5 -60t12.5 -60t33.5 -49t49 -33.5t60 -12.5h78zM260 233v-78q0 -16 -6 -30t-16.5 -24.5t-25 -16.5t-30.5 -6q-32 0 -54.5 22.5t-22.5 54.5q0 16 6 30.5t16.5 25
t24.5 16.5t30 6h78zM569 233h77q32 0 55 -23t23 -55q0 -16 -6 -30t-16.5 -24.5t-25 -16.5t-30.5 -6q-32 0 -54.5 22.5t-22.5 54.5v78zM569 542v78q0 32 22.5 55t54.5 23q16 0 30.5 -6.5t25 -17t16.5 -24.5t6 -30q0 -32 -23 -55t-55 -23h-77z" />
    <glyph glyph-name="Delta" unicode="&#xe008;" horiz-adv-x="1052" 
d="M110 720q-10 -11 -25 -18t-29.5 -14.5t-25 -18t-10.5 -26.5q0 -19 15 -36.5t37 -17.5q17 0 27.5 2.5t17.5 2.5q8 0 12 -5t4 -19v-316q0 -23 16.5 -40t40.5 -17t41 17t17 40v478q0 28 -19 42.5t-39 14.5q-14 0 -24 -6t-19 -15.5t-17.5 -22t-19.5 -25.5zM656 727q5 12 5 22
q0 17 -6.5 27.5t-15.5 16t-18 7.5t-13 2q-15 0 -28 -8t-20 -22l-327 -698q-5 -12 -5 -21q0 -22 15 -38t38 -16q15 0 28 8t20 22zM613 450q0 -36 18.5 -51.5t40.5 -15.5q20 0 35.5 11.5t15.5 31.5q0 45 24 61.5t58 16.5q41 0 69 -22.5t28 -73.5q0 -33 -22 -62.5t-55.5 -57
t-72.5 -55t-72.5 -56.5t-55.5 -60.5t-22 -66.5q0 -18 14.5 -34t34.5 -16h332q20 0 34.5 14.5t14.5 35.5q0 20 -14.5 34t-34.5 14h-203q-14 0 -19 2.5t-5 7.5t6 12t14 14t17 13t15 11q20 15 55.5 37t70.5 52t61 69t26 88q0 57 -18 95.5t-48 61t-69 32t-81 9.5
q-36 0 -70.5 -9.5t-61.5 -28t-43.5 -47t-16.5 -67.5z" />
    <glyph glyph-name="nonbreakingspace" unicode="&#xe009;" horiz-adv-x="263" 
 />
    <glyph glyph-name="lozenge" unicode="&#xe00a;" horiz-adv-x="813" 
d="M407 0l394 395l-394 394l-395 -394zM78 395l329 329l329 -329l-329 -329z" />
    </font>
</defs>
</svg>
